<svg width="632" height="406" viewBox="0 0 632 406" fill="none" xmlns="http://www.w3.org/2000/svg">
<path d="M515.423 284.857C515.423 284.857 518.405 278.957 521.854 284.373C525.302 289.789 517.565 294.285 517.565 294.285C517.565 294.285 511.142 288.009 512.381 285.507C513.621 283.005 515.423 284.857 515.423 284.857Z" fill="#2DA9A9"/>
<path d="M490.583 325.692C490.583 325.692 488.206 319.521 494.536 320.592C500.865 321.663 499.009 330.42 499.009 330.42C499.009 330.42 490.05 330.982 489.025 328.385C488.001 325.788 490.583 325.692 490.583 325.692Z" fill="#2DA9A9"/>
<path d="M487.194 296.917C487.383 296.264 487.337 295.566 487.065 294.944C486.942 294.468 486.866 293.982 486.838 293.492C486.788 293.17 486.859 292.841 487.038 292.569C487.212 292.416 487.426 292.316 487.656 292.28C487.885 292.245 488.12 292.275 488.332 292.369C488.754 292.561 489.212 292.663 489.676 292.669C489.878 292.641 490.07 292.561 490.232 292.436C490.394 292.312 490.52 292.147 490.598 291.958C490.685 291.738 490.704 291.495 490.806 291.282C490.905 291.136 491.033 291.012 491.181 290.917C491.33 290.822 491.496 290.758 491.67 290.728C491.844 290.699 492.021 290.705 492.193 290.746C492.364 290.787 492.525 290.863 492.667 290.968C493.221 291.424 493.635 292.027 493.86 292.709C494.604 294.111 495.01 295.667 495.046 297.254C494.892 298.306 494.684 299.349 494.423 300.38L494.136 300.025L491.687 300.533C491.382 300.614 491.066 300.648 490.75 300.633C490.187 300.502 489.656 300.261 489.186 299.924C488.606 299.673 488.05 299.368 487.526 299.013C487.266 298.83 487.071 298.57 486.969 298.269C486.867 297.968 486.863 297.643 486.958 297.34C487.025 297.19 487.124 297.061 487.194 296.917Z" fill="#2DA9A9"/>
<path d="M524.466 302.119C524.556 301.78 524.554 301.424 524.461 301.087C524.296 300.704 523.87 300.516 523.577 300.22C523.357 299.963 523.203 299.656 523.131 299.325C523.059 298.994 523.07 298.651 523.164 298.326C523.36 297.678 523.664 297.067 524.063 296.521C524.124 296.397 524.226 296.299 524.352 296.242C524.489 296.214 524.632 296.239 524.752 296.313C525.494 296.676 526.074 297.302 526.38 298.07C526.424 298.233 526.511 298.381 526.631 298.499C526.912 298.713 527.323 298.486 527.536 298.199C527.811 297.836 527.954 297.386 528.227 297.021C528.347 296.826 528.528 296.678 528.742 296.598C528.956 296.518 529.19 296.512 529.408 296.58C529.864 296.8 529.914 297.438 529.787 297.928C529.587 298.394 529.498 298.901 529.528 299.409C529.547 299.514 529.596 299.613 529.668 299.693C529.935 299.963 530.376 299.727 530.748 299.657C531.074 299.622 531.401 299.701 531.674 299.881C531.948 300.061 532.15 300.33 532.247 300.643C532.333 300.958 532.351 301.288 532.299 301.611C532.247 301.934 532.127 302.243 531.948 302.516C531.586 303.06 531.149 303.549 530.648 303.969L527.95 306.455L528.05 306.833C526.97 306.641 526.001 306.05 525.337 305.177C524.673 304.303 524.362 303.211 524.466 302.119Z" fill="#2DA9A9"/>
<path d="M466.44 310.69C465.84 310.275 465.887 309.236 465.226 308.938C464.922 308.833 464.59 308.847 464.297 308.978C463.901 309.087 463.549 309.317 463.29 309.635C463.03 309.954 462.876 310.345 462.849 310.755C462.895 311.633 463.786 312.437 463.464 313.255C463.3 313.558 463.079 313.826 462.814 314.046C462.543 314.316 462.343 314.649 462.232 315.016C462.122 315.382 462.105 315.771 462.183 316.146C462.278 316.516 462.506 316.839 462.824 317.05C463.142 317.262 463.527 317.349 463.906 317.294C464.089 317.225 464.284 317.188 464.48 317.184C465.231 317.271 465.08 318.674 465.812 318.876C465.974 318.894 466.137 318.877 466.291 318.827C466.446 318.776 466.587 318.692 466.707 318.582C467.706 317.885 468.7 317.182 469.69 316.473L469.507 316.583C469.668 316.399 469.79 316.184 469.864 315.952C469.938 315.719 469.964 315.473 469.939 315.23C469.958 314.343 469.926 313.456 469.845 312.572C469.781 311.882 469.604 311.072 468.966 310.802C468.174 310.46 467.147 311.183 466.44 310.69Z" fill="#2DA9A9"/>
<path d="M500.11 318.827C500.572 318.266 500.25 317.278 500.809 316.812C501.071 316.629 501.393 316.553 501.709 316.599C502.119 316.597 502.521 316.723 502.857 316.959C503.193 317.196 503.447 317.531 503.584 317.918C503.777 318.775 503.137 319.791 503.667 320.491C503.908 320.738 504.192 320.936 504.507 321.077C504.841 321.262 505.124 321.529 505.329 321.852C505.535 322.175 505.656 322.544 505.682 322.926C505.691 323.308 505.558 323.68 505.31 323.97C505.061 324.26 504.714 324.448 504.335 324.497C504.139 324.48 503.942 324.497 503.752 324.546C503.053 324.833 503.573 326.146 502.927 326.536C502.776 326.597 502.615 326.626 502.452 326.618C502.29 326.611 502.131 326.569 501.987 326.495C500.836 326.095 499.689 325.687 498.545 325.272L498.75 325.329C498.545 325.196 498.37 325.022 498.235 324.818C498.101 324.614 498.01 324.385 497.968 324.144C497.711 323.295 497.501 322.432 497.34 321.56C497.226 321.232 497.201 320.881 497.265 320.54C497.33 320.199 497.482 319.881 497.708 319.618C498.378 319.076 499.562 319.494 500.11 318.827Z" fill="#2DA9A9"/>
<path d="M475.893 298.639C475.55 298.029 474.661 297.939 474.258 297.365C474.121 297.146 474.053 296.891 474.064 296.633C474.074 296.375 474.162 296.126 474.315 295.919C474.474 295.715 474.672 295.546 474.898 295.42C475.123 295.294 475.371 295.215 475.628 295.187C476.167 295.112 476.806 295.174 477.165 294.763C477.327 294.533 477.434 294.269 477.476 293.991C477.647 293.313 477.913 292.664 478.267 292.063C478.342 291.902 478.467 291.769 478.623 291.685C478.845 291.626 479.081 291.656 479.281 291.768C480.145 291.92 480.936 292.347 481.538 292.986C482.139 293.625 482.518 294.441 482.619 295.313C482.775 295.993 482.932 296.672 483.088 297.351C483.224 297.795 483.264 298.263 483.205 298.725L483.895 298.277C483.898 298.606 483.781 298.926 483.565 299.175C483.349 299.423 483.049 299.585 482.723 299.628C482.532 299.647 482.339 299.623 482.148 299.637C481.671 299.712 481.221 299.905 480.837 300.198L479.061 301.336C478.572 301.7 478.01 301.955 477.413 302.082C477.114 302.138 476.804 302.098 476.529 301.967C476.253 301.836 476.027 301.621 475.881 301.353C475.522 300.505 476.346 299.445 475.893 298.639Z" fill="#2DA9A9"/>
<path d="M501.975 315.682C502.206 315.758 502.42 315.878 502.605 316.035C502.908 316.309 503.237 316.553 503.586 316.764C503.762 316.868 503.962 316.926 504.167 316.931C504.372 316.935 504.574 316.888 504.755 316.792C505.182 316.521 505.394 315.863 505.899 315.862C506.066 315.868 506.224 315.937 506.341 316.055C506.626 316.421 506.756 316.884 506.701 317.344L506.716 319.482C506.744 319.772 506.693 320.064 506.567 320.327C506.373 320.575 506.124 320.775 505.841 320.911C504.993 321.451 504.392 322.303 504.167 323.282L503.681 323.441C503.477 323.184 503.191 323.005 502.872 322.931C502.131 322.629 501.483 322.136 500.996 321.501C500.508 320.867 500.197 320.114 500.095 319.32C500.058 319.124 500.081 318.921 500.16 318.737C500.36 318.373 500.942 318.231 500.932 317.819C500.896 317.636 500.816 317.465 500.699 317.319C500.589 317.126 500.538 316.904 500.554 316.682C500.57 316.46 500.652 316.248 500.789 316.073C500.925 315.897 501.111 315.766 501.323 315.697C501.534 315.627 501.761 315.622 501.975 315.682Z" fill="#2DA9A9"/>
<path d="M486.786 313.011C486.978 312.863 487.197 312.753 487.431 312.69C487.828 312.594 488.215 312.46 488.587 312.29C488.772 312.203 488.932 312.07 489.052 311.904C489.172 311.738 489.247 311.544 489.27 311.34C489.287 310.834 488.863 310.288 489.148 309.87C489.247 309.736 489.393 309.644 489.557 309.614C490.019 309.584 490.475 309.739 490.823 310.045L492.596 311.238C492.851 311.379 493.062 311.586 493.208 311.838C493.304 312.138 493.329 312.456 493.28 312.767C493.248 313.772 493.611 314.749 494.293 315.488L494.149 315.979C493.822 316.004 493.513 316.138 493.271 316.36C492.604 316.802 491.832 317.058 491.034 317.103C490.235 317.148 489.439 316.98 488.727 316.616C488.543 316.536 488.388 316.403 488.282 316.233C488.092 315.866 488.306 315.302 487.959 315.078C487.788 315.005 487.602 314.974 487.416 314.989C487.195 314.971 486.984 314.887 486.81 314.748C486.636 314.61 486.507 314.423 486.44 314.211C486.372 313.999 486.369 313.772 486.431 313.558C486.492 313.345 486.616 313.154 486.786 313.011Z" fill="#2DA9A9"/>
<path d="M531.797 313.234C531.666 313.44 531.496 313.617 531.297 313.756C530.956 313.981 530.638 314.238 530.347 314.524C530.202 314.669 530.096 314.848 530.04 315.045C529.984 315.242 529.979 315.45 530.026 315.649C530.182 316.131 530.766 316.501 530.64 316.991C530.592 317.152 530.485 317.287 530.34 317.37C530.13 317.462 529.903 317.512 529.674 317.517C529.444 317.521 529.216 317.48 529.003 317.396L526.931 316.875C526.643 316.831 526.373 316.707 526.151 316.519C525.959 316.27 525.828 315.979 525.768 315.67C525.457 314.714 524.784 313.919 523.892 313.454L523.861 312.944C524.175 312.858 524.366 312.551 524.561 312.287C525.038 311.645 525.678 311.142 526.414 310.828C527.15 310.515 527.955 310.402 528.749 310.502C528.949 310.516 529.14 310.588 529.298 310.711C529.597 310.992 529.59 311.595 529.997 311.688C530.183 311.7 530.368 311.665 530.538 311.588C530.752 311.53 530.979 311.537 531.19 311.608C531.401 311.68 531.585 311.812 531.721 311.988C531.856 312.165 531.936 312.378 531.951 312.6C531.965 312.822 531.913 313.043 531.802 313.235L531.797 313.234Z" fill="#2DA9A9"/>
<path d="M491.211 349.304C489.994 344.393 487.571 337.358 482.942 331.723C481.397 329.959 479.684 328.35 477.828 326.917C475.53 325.171 473.465 323.138 471.683 320.866C470.358 318.922 469.254 316.836 468.392 314.646C467.947 313.622 467.486 312.561 466.966 311.533C465.855 309.685 464.479 308.009 462.884 306.558C462.41 306.078 461.947 305.61 461.521 305.158L463.127 303.65C463.541 304.092 463.99 304.55 464.449 305.012C466.209 306.623 467.72 308.486 468.931 310.541C469.48 311.626 469.954 312.717 470.412 313.771C471.21 315.813 472.234 317.758 473.465 319.571C475.138 321.693 477.076 323.592 479.231 325.22C481.196 326.743 483.008 328.453 484.642 330.326C489.539 336.278 492.076 343.644 493.347 348.775L491.211 349.304Z" fill="#8B383E"/>
<path d="M502.185 345.77C505.131 338.583 502.5 330.541 499.537 323.622L499.05 322.492C496.325 316.158 493.507 309.61 494.653 303.092C494.772 302.425 494.931 301.76 495.089 301.097C495.685 299.288 495.891 297.372 495.692 295.478C495.493 293.583 494.895 291.752 493.936 290.106L486.97 274.039L484.949 274.917L491.915 290.984C492.801 292.713 493.358 294.592 493.557 296.524C493.535 297.899 493.329 299.265 492.947 300.585C492.779 301.291 492.611 301.998 492.485 302.709C491.22 309.873 494.171 316.729 497.024 323.36L497.508 324.487C500.292 330.987 502.781 338.497 500.144 344.931L502.185 345.77Z" fill="#8B383E"/>
<path d="M493.264 345.53L495.092 346.757C496.838 344.153 498.309 341.375 499.48 338.467C499.821 337.721 500.022 336.919 500.072 336.101C500.062 335.448 499.961 334.801 499.772 334.177C499.718 333.977 499.665 333.767 499.622 333.561C499.285 331.945 499.594 330.262 500.484 328.872C501.213 327.861 502.075 326.953 503.047 326.172C504.422 325.195 505.549 323.91 506.339 322.419C507.129 320.929 507.56 319.274 507.597 317.588L510.057 299.403L507.874 299.103L505.414 317.288C505.412 318.714 505.062 320.118 504.395 321.378C503.728 322.638 502.763 323.716 501.585 324.519C500.461 325.43 499.467 326.493 498.633 327.677C497.43 329.556 497.012 331.833 497.468 334.018C497.518 334.256 497.58 334.494 497.641 334.731C497.776 335.161 497.854 335.607 497.874 336.058C497.822 336.607 497.675 337.144 497.44 337.644C496.325 340.41 494.925 343.053 493.264 345.53Z" fill="#8B383E"/>
<path d="M505.829 345.568C508.673 340.583 511.614 335.428 513.011 329.656C513.111 329.244 513.205 328.825 513.299 328.403C513.844 325.983 514.407 323.482 516.14 322.095C516.657 321.711 517.209 321.376 517.788 321.095C517.999 320.985 518.209 320.874 518.418 320.76C522.737 318.363 525.928 314.347 527.289 309.597C527.598 308.438 527.849 307.263 528.039 306.079C528.219 304.962 528.454 303.856 528.745 302.763C529.22 301.094 530.19 298.89 532.109 297.873L531.078 295.925C528.473 297.306 527.22 300.078 526.626 302.16C526.315 303.324 526.063 304.502 525.872 305.692C525.694 306.803 525.461 307.904 525.172 308.992C523.973 313.177 521.162 316.714 517.357 318.825C517.157 318.932 516.964 319.036 516.766 319.14C516.062 319.483 515.393 319.894 514.767 320.366C512.43 322.236 511.752 325.251 511.153 327.912C511.061 328.322 510.969 328.73 510.872 329.131C509.549 334.599 506.687 339.616 503.918 344.469L505.829 345.568Z" fill="#8B383E"/>
<path d="M491.499 346.292C498.219 334.429 499.261 321.452 494.287 311.579C492.038 307.113 488.645 303.39 485.365 299.788C484.536 298.879 483.708 297.97 482.899 297.051C479.453 293.133 475.405 287.863 474.705 281.816L472.518 282.071C473.292 288.724 477.59 294.35 481.249 298.506C482.066 299.435 482.902 300.354 483.74 301.274C486.921 304.765 490.209 308.374 492.323 312.574C496.965 321.786 495.941 333.986 489.585 345.208L491.499 346.292Z" fill="#8B383E"/>
<path d="M512.253 349.984C514.504 340.704 517.057 330.184 515.703 319.923C515.564 318.87 515.385 317.823 515.204 316.774C514.854 314.968 514.618 313.141 514.497 311.306C514.206 304.793 516.774 298.786 519.494 292.426C521.642 287.399 523.864 282.203 524.559 276.704L522.374 276.428C521.717 281.619 519.558 286.672 517.469 291.559C514.771 297.867 511.986 304.389 512.299 311.404C512.424 313.332 512.67 315.25 513.035 317.147C513.21 318.166 513.386 319.187 513.521 320.211C514.82 330.066 512.322 340.372 510.113 349.464L512.253 349.984Z" fill="#8B383E"/>
<path d="M475.043 396.881H521.445V342.458H475.043V396.881Z" fill="#FFCF7B"/>
<path d="M520.64 270.772C520.64 270.772 523.622 264.872 527.071 270.288C530.519 275.704 522.782 280.2 522.782 280.2C522.782 280.2 516.359 273.924 517.598 271.422C518.837 268.92 520.64 270.772 520.64 270.772Z" fill="#84CDCD"/>
<path d="M481.449 274.393C481.78 273.8 481.894 273.109 481.77 272.441C481.758 271.95 481.794 271.46 481.878 270.976C481.903 270.651 482.047 270.346 482.284 270.122C482.488 270.013 482.72 269.964 482.951 269.982C483.182 269.999 483.404 270.083 483.59 270.222C483.957 270.506 484.379 270.71 484.83 270.822C485.033 270.841 485.238 270.806 485.424 270.721C485.61 270.637 485.771 270.504 485.89 270.338C486.024 270.144 486.098 269.911 486.246 269.727C486.375 269.607 486.528 269.515 486.694 269.456C486.86 269.397 487.036 269.372 487.212 269.383C487.388 269.394 487.56 269.44 487.717 269.519C487.875 269.598 488.015 269.708 488.128 269.843C488.565 270.412 488.831 271.094 488.896 271.809C489.304 273.344 489.348 274.954 489.023 276.509C488.635 277.498 488.196 278.466 487.708 279.409L487.508 278.999L485.01 278.939C484.694 278.947 484.379 278.907 484.076 278.819C483.558 278.564 483.094 278.209 482.713 277.775C482.205 277.398 481.732 276.975 481.302 276.51C481.091 276.273 480.96 275.975 480.929 275.659C480.898 275.343 480.968 275.026 481.128 274.752C481.222 274.62 481.348 274.517 481.449 274.393Z" fill="#84CDCD"/>
<path d="M513.984 304.964C514.418 304.908 514.714 304.515 515.008 304.19C515.222 303.954 515.459 303.739 515.714 303.549C515.872 303.408 516.076 303.33 516.287 303.33C516.587 303.364 516.773 303.672 516.858 303.961C516.903 304.259 517.011 304.544 517.172 304.798C517.26 304.898 517.372 304.974 517.497 305.018C517.623 305.061 517.757 305.071 517.888 305.046C518.038 305.015 518.177 304.938 518.329 304.918C518.787 304.856 519.165 305.353 519.162 305.818C519.113 306.282 518.933 306.722 518.643 307.087C518.148 307.991 517.449 308.767 516.601 309.352C515.976 309.643 515.336 309.902 514.684 310.128L514.774 309.845C514.39 309.462 514.007 309.079 513.625 308.696C513.472 308.559 513.342 308.399 513.239 308.222C513.11 307.87 513.051 307.497 513.065 307.122C512.994 306.717 512.96 306.306 512.965 305.895C512.973 305.69 513.046 305.493 513.172 305.331C513.299 305.169 513.473 305.052 513.67 304.995C513.776 304.969 513.881 304.977 513.984 304.964Z" fill="#84CDCD"/>
<path d="M491.852 329.321C492.246 329.13 492.401 328.663 492.575 328.261C492.703 327.969 492.859 327.69 493.041 327.428C493.144 327.244 493.313 327.104 493.514 327.037C493.664 327.029 493.814 327.064 493.945 327.137C494.076 327.211 494.184 327.321 494.255 327.453C494.394 327.721 494.586 327.957 494.821 328.146C494.935 328.213 495.066 328.249 495.198 328.25C495.331 328.251 495.462 328.217 495.577 328.151C495.71 328.075 495.817 327.958 495.954 327.89C496.063 327.855 496.178 327.843 496.292 327.853C496.406 327.864 496.517 327.898 496.618 327.952C496.718 328.007 496.807 328.082 496.878 328.171C496.949 328.261 497.001 328.365 497.031 328.475C497.132 328.93 497.102 329.405 496.944 329.843C496.764 330.858 496.349 331.817 495.732 332.643C495.232 333.119 494.708 333.569 494.162 333.99L494.157 333.69L492.702 332.969C492.514 332.888 492.34 332.778 492.186 332.642C491.95 332.35 491.774 332.014 491.669 331.653C491.473 331.292 491.311 330.913 491.185 330.522C491.126 330.325 491.131 330.114 491.199 329.919C491.267 329.725 491.395 329.557 491.564 329.439C491.656 329.393 491.758 329.367 491.852 329.321Z" fill="#84CDCD"/>
<path d="M484.794 299.096C485.188 298.904 485.344 298.437 485.519 298.035C485.646 297.742 485.801 297.463 485.983 297.202C486.087 297.017 486.255 296.878 486.456 296.811C486.606 296.802 486.756 296.837 486.887 296.911C487.019 296.984 487.126 297.094 487.198 297.227C487.336 297.495 487.529 297.731 487.764 297.92C487.879 297.987 488.009 298.023 488.142 298.024C488.274 298.025 488.405 297.991 488.521 297.926C488.653 297.849 488.76 297.732 488.897 297.664C489.006 297.629 489.121 297.617 489.235 297.627C489.349 297.638 489.46 297.672 489.56 297.727C489.661 297.781 489.749 297.856 489.82 297.945C489.891 298.035 489.944 298.138 489.974 298.249C490.075 298.704 490.045 299.178 489.887 299.617C489.707 300.632 489.291 301.591 488.675 302.417C488.175 302.893 487.651 303.342 487.106 303.765V303.465L485.65 302.743C485.462 302.661 485.288 302.551 485.133 302.417C484.897 302.124 484.722 301.788 484.617 301.427C484.42 301.066 484.258 300.687 484.133 300.296C484.074 300.098 484.079 299.887 484.147 299.693C484.215 299.499 484.343 299.331 484.512 299.214C484.599 299.168 484.701 299.141 484.794 299.096Z" fill="#84CDCD"/>
<path d="M491.983 289.235C492.377 289.043 492.532 288.577 492.706 288.175C492.834 287.883 492.99 287.604 493.172 287.342C493.276 287.158 493.444 287.018 493.645 286.951C493.795 286.943 493.945 286.978 494.076 287.051C494.207 287.125 494.315 287.235 494.386 287.367C494.525 287.635 494.717 287.87 494.952 288.059C495.066 288.127 495.197 288.163 495.329 288.164C495.462 288.165 495.593 288.131 495.708 288.065C495.841 287.988 495.948 287.871 496.085 287.803C496.194 287.769 496.309 287.756 496.423 287.767C496.537 287.778 496.648 287.812 496.749 287.867C496.849 287.921 496.938 287.996 497.009 288.086C497.08 288.176 497.132 288.279 497.162 288.389C497.264 288.844 497.233 289.318 497.075 289.756C496.895 290.772 496.48 291.73 495.863 292.556C495.364 293.033 494.84 293.483 494.293 293.904L494.288 293.604L492.833 292.882C492.646 292.801 492.471 292.691 492.317 292.556C492.081 292.264 491.906 291.928 491.8 291.567C491.604 291.206 491.442 290.828 491.316 290.436C491.257 290.239 491.262 290.028 491.33 289.833C491.398 289.639 491.526 289.471 491.695 289.353C491.789 289.304 491.891 289.281 491.983 289.235Z" fill="#84CDCD"/>
<path d="M532.71 293.905C533.06 293.883 533.397 293.768 533.686 293.571C533.997 293.293 534.038 292.829 534.224 292.456C534.396 292.164 534.638 291.92 534.928 291.745C535.218 291.57 535.547 291.471 535.885 291.456C536.562 291.433 537.238 291.524 537.884 291.727C538.02 291.746 538.147 291.811 538.242 291.911C538.311 292.032 538.332 292.174 538.302 292.311C538.195 293.13 537.787 293.881 537.158 294.417C537.018 294.51 536.906 294.64 536.834 294.792C536.721 295.127 537.066 295.443 537.401 295.555C537.834 295.7 538.306 295.692 538.738 295.834C539.171 295.976 539.591 296.36 539.538 296.812C539.475 297.312 538.887 297.567 538.383 297.603C537.877 297.562 537.369 297.64 536.899 297.832C536.804 297.883 536.725 297.96 536.673 298.055C536.504 298.394 536.873 298.737 537.052 299.068C537.19 299.365 537.219 299.7 537.136 300.016C537.054 300.333 536.864 300.611 536.599 300.803C536.328 300.985 536.021 301.108 535.699 301.162C535.376 301.217 535.046 301.203 534.73 301.121C534.099 300.952 533.496 300.693 532.938 300.353L529.715 298.605L529.388 298.818C529.222 297.731 529.472 296.621 530.088 295.71C530.704 294.8 531.64 294.155 532.71 293.905Z" fill="#84CDCD"/>
<path d="M475.507 297.318C475.223 297.189 474.909 297.139 474.598 297.171C474.238 297.259 474.011 297.606 473.707 297.821C473.449 297.978 473.156 298.068 472.855 298.083C472.554 298.098 472.253 298.037 471.981 297.907C471.441 297.64 470.949 297.284 470.526 296.854C470.428 296.781 470.358 296.677 470.326 296.559C470.322 296.434 470.366 296.312 470.448 296.218C470.876 295.618 471.512 295.199 472.232 295.042C472.382 295.028 472.525 294.973 472.646 294.884C472.876 294.668 472.736 294.274 472.519 294.044C472.24 293.744 471.865 293.557 471.586 293.262C471.433 293.129 471.329 292.948 471.29 292.749C471.252 292.55 471.28 292.344 471.371 292.162C471.632 291.793 472.199 291.842 472.612 292.027C472.993 292.272 473.425 292.424 473.875 292.472C473.971 292.471 474.065 292.443 474.146 292.391C474.423 292.191 474.281 291.772 474.274 291.434C474.291 291.143 474.408 290.867 474.607 290.652C474.805 290.438 475.071 290.3 475.36 290.26C475.65 290.231 475.943 290.264 476.219 290.357C476.496 290.449 476.75 290.599 476.964 290.797C477.389 291.196 477.754 291.653 478.049 292.155C478.649 293.069 479.245 293.981 479.839 294.893L480.187 294.863C479.857 295.786 479.193 296.551 478.326 297.006C477.459 297.46 476.452 297.572 475.507 297.318Z" fill="#84CDCD"/>
<path d="M510.37 334.305C510.701 334.284 511.019 334.174 511.293 333.988C511.586 333.725 511.625 333.288 511.802 332.934C511.965 332.658 512.194 332.427 512.468 332.262C512.743 332.098 513.054 332.004 513.373 331.99C514.012 331.968 514.65 332.055 515.26 332.245C515.389 332.263 515.508 332.325 515.598 332.421C515.664 332.535 515.684 332.671 515.655 332.8C515.554 333.575 515.169 334.285 514.574 334.792C514.441 334.88 514.334 335.003 514.266 335.148C514.159 335.464 514.486 335.763 514.803 335.869C515.213 336.006 515.659 335.999 516.068 336.133C516.478 336.267 516.874 336.633 516.82 337.058C516.761 337.534 516.205 337.771 515.728 337.805C515.251 337.768 514.772 337.843 514.328 338.023C514.239 338.071 514.165 338.144 514.116 338.234C513.956 338.555 514.299 338.879 514.474 339.192C514.604 339.472 514.632 339.79 514.554 340.089C514.476 340.388 514.296 340.651 514.046 340.833C513.789 341.005 513.499 341.121 513.194 341.173C512.889 341.225 512.577 341.211 512.278 341.133C511.68 340.973 511.108 340.729 510.579 340.407L507.537 338.741L507.227 338.942C507.073 337.915 507.311 336.868 507.893 336.009C508.476 335.149 509.36 334.541 510.37 334.305Z" fill="#84CDCD"/>
<path d="M462.067 299.705C461.588 299.159 461.879 298.161 461.308 297.713C461.039 297.538 460.713 297.472 460.397 297.529C459.987 297.54 459.59 297.678 459.262 297.925C458.934 298.172 458.69 298.515 458.566 298.906C458.4 299.769 459.071 300.764 458.566 301.481C458.333 301.735 458.055 301.942 457.745 302.092C457.417 302.288 457.143 302.564 456.948 302.893C456.753 303.223 456.643 303.595 456.629 303.978C456.632 304.36 456.777 304.728 457.035 305.01C457.294 305.292 457.647 305.468 458.028 305.505C458.223 305.483 458.421 305.493 458.613 305.536C459.32 305.801 458.841 307.128 459.499 307.499C459.651 307.555 459.814 307.578 459.976 307.566C460.138 307.554 460.296 307.507 460.438 307.429C461.575 306.992 462.707 306.549 463.836 306.098L463.636 306.161C463.837 306.021 464.006 305.842 464.134 305.634C464.262 305.426 464.346 305.194 464.38 304.952C464.611 304.096 464.794 303.228 464.927 302.352C465.03 302.021 465.045 301.669 464.969 301.33C464.894 300.992 464.732 300.679 464.498 300.423C463.802 299.897 462.636 300.352 462.067 299.705Z" fill="#84CDCD"/>
<path d="M495.34 311.631C495.654 310.976 495.104 310.094 495.532 309.508C495.744 309.267 496.039 309.115 496.358 309.084C496.757 308.983 497.176 309.009 497.559 309.158C497.942 309.306 498.27 309.571 498.496 309.914C498.888 310.7 498.511 311.839 499.195 312.392C499.488 312.574 499.812 312.698 500.151 312.759C500.52 312.858 500.858 313.049 501.135 313.313C501.412 313.577 501.618 313.906 501.734 314.271C501.835 314.64 501.796 315.033 501.624 315.374C501.452 315.716 501.159 315.981 500.803 316.12C500.609 316.151 500.422 316.214 500.25 316.308C499.64 316.754 500.459 317.908 499.927 318.438C499.795 318.533 499.645 318.6 499.485 318.632C499.326 318.664 499.162 318.661 499.003 318.624C497.791 318.51 496.579 318.39 495.369 318.264L495.582 318.269C495.351 318.189 495.139 318.063 494.96 317.897C494.78 317.732 494.637 317.531 494.539 317.308C494.085 316.545 493.674 315.758 493.308 314.95C493.12 314.659 493.01 314.324 492.991 313.977C492.972 313.631 493.044 313.286 493.199 312.976C493.72 312.289 494.968 312.405 495.34 311.631Z" fill="#84CDCD"/>
<path d="M470.372 279.904C470.672 279.274 470.244 278.491 470.482 277.833C470.584 277.596 470.754 277.394 470.972 277.256C471.189 277.117 471.444 277.046 471.701 277.054C471.959 277.068 472.211 277.134 472.443 277.247C472.675 277.36 472.881 277.519 473.051 277.713C473.421 278.113 473.735 278.673 474.278 278.733C474.558 278.736 474.836 278.672 475.088 278.548C475.741 278.301 476.426 278.148 477.122 278.094C477.297 278.065 477.477 278.092 477.635 278.172C477.81 278.321 477.92 278.531 477.943 278.759C478.302 279.824 478.322 280.974 478.002 282.051C477.735 282.599 477.377 283.098 476.943 283.526L475.544 285.076C475.257 285.442 474.895 285.743 474.484 285.958L475.245 286.268C474.977 286.459 474.647 286.545 474.32 286.51C473.992 286.475 473.689 286.321 473.467 286.077C473.343 285.931 473.252 285.759 473.131 285.61C472.797 285.263 472.381 285.003 471.922 284.855L469.974 284.047C469.395 283.854 468.865 283.538 468.421 283.119C468.204 282.906 468.06 282.628 468.01 282.328C467.96 282.027 468.006 281.718 468.143 281.445C468.633 280.665 469.971 280.738 470.372 279.904Z" fill="#84CDCD"/>
<path d="M475.401 316.193C475.011 315.658 475.154 314.793 474.808 314.218C474.699 314.025 474.527 313.874 474.322 313.791C474.116 313.709 473.888 313.698 473.675 313.762C473.468 313.851 473.282 313.983 473.131 314.149C472.979 314.315 472.864 314.513 472.795 314.727C472.606 315.205 472.502 315.821 472.095 316.011C471.878 316.082 471.645 316.089 471.424 316.03C470.864 315.95 470.295 315.969 469.742 316.087C469.595 316.103 469.46 316.175 469.364 316.287C469.264 316.485 469.231 316.71 469.27 316.929C469.253 318.043 469.515 319.143 470.033 320.129C470.36 320.579 470.758 320.973 471.212 321.296L472.676 322.452C472.971 322.726 473.325 322.93 473.711 323.046L473.198 323.531C473.325 323.588 473.462 323.617 473.601 323.617C473.74 323.616 473.877 323.585 474.003 323.526C474.129 323.468 474.241 323.383 474.331 323.277C474.421 323.171 474.488 323.048 474.526 322.914C474.586 322.743 474.614 322.555 474.67 322.382C474.83 321.983 475.087 321.63 475.419 321.357L476.725 320.102C477.14 319.755 477.472 319.32 477.697 318.828C477.812 318.553 477.854 318.254 477.819 317.959C477.784 317.663 477.673 317.382 477.497 317.142C476.931 316.505 475.916 316.899 475.401 316.193Z" fill="#84CDCD"/>
<path d="M504.627 320.123C505.269 319.964 505.713 319.212 506.348 318.991C506.556 318.913 506.784 318.908 506.995 318.977C507.206 319.045 507.388 319.184 507.51 319.369C507.611 319.57 507.669 319.791 507.679 320.016C507.688 320.241 507.65 320.466 507.566 320.675C507.404 321.162 507.088 321.702 507.276 322.107C507.396 322.301 507.569 322.456 507.776 322.553C508.255 322.852 508.679 323.233 509.028 323.678C509.13 323.784 509.188 323.926 509.19 324.073C509.139 324.289 509.02 324.484 508.85 324.626C508.149 325.49 507.243 326.163 506.215 326.586C505.674 326.722 505.116 326.768 504.561 326.723L502.697 326.669C502.294 326.69 501.892 326.618 501.522 326.459L501.604 327.159C501.47 327.122 501.346 327.056 501.24 326.966C501.134 326.876 501.049 326.765 500.99 326.639C500.931 326.513 500.9 326.376 500.898 326.237C500.897 326.098 500.926 325.961 500.982 325.834C501.046 325.664 501.146 325.502 501.213 325.334C501.347 324.925 501.375 324.49 501.297 324.067C501.23 323.467 501.164 322.867 501.097 322.267C501.003 321.735 501.028 321.188 501.17 320.667C501.258 320.383 501.417 320.126 501.633 319.922C501.848 319.718 502.113 319.573 502.401 319.501C503.256 319.378 503.779 320.335 504.627 320.123Z" fill="#84CDCD"/>
<path d="M506.407 294.976C506.637 295.051 506.851 295.171 507.036 295.329C507.339 295.603 507.668 295.847 508.017 296.058C508.194 296.161 508.394 296.219 508.598 296.224C508.803 296.229 509.005 296.182 509.187 296.087C509.613 295.815 509.825 295.157 510.331 295.156C510.497 295.162 510.655 295.231 510.773 295.349C511.058 295.714 511.187 296.177 511.132 296.638L511.147 298.776C511.176 299.066 511.124 299.358 510.998 299.621C510.805 299.869 510.556 300.069 510.272 300.205C509.425 300.746 508.824 301.597 508.598 302.577L508.112 302.735C507.908 302.479 507.622 302.299 507.303 302.225C506.562 301.923 505.915 301.43 505.427 300.795C504.94 300.161 504.629 299.408 504.528 298.614C504.49 298.417 504.512 298.214 504.592 298.031C504.792 297.667 505.373 297.526 505.363 297.113C505.328 296.93 505.248 296.758 505.13 296.613C505.02 296.419 504.97 296.198 504.986 295.976C505.002 295.754 505.084 295.542 505.22 295.366C505.357 295.191 505.543 295.06 505.754 294.99C505.965 294.92 506.192 294.915 506.407 294.975V294.976Z" fill="#84CDCD"/>
<path d="M472.311 308.264C472.411 308.484 472.468 308.722 472.478 308.964C472.483 309.372 472.526 309.779 472.608 310.18C472.652 310.38 472.746 310.566 472.881 310.72C473.016 310.874 473.188 310.991 473.381 311.06C473.869 311.19 474.496 310.898 474.84 311.27C474.948 311.396 475.004 311.559 474.997 311.726C474.923 312.183 474.672 312.592 474.297 312.864L472.738 314.325C472.544 314.542 472.294 314.702 472.016 314.789C471.702 314.814 471.387 314.767 471.095 314.651C470.124 314.393 469.091 314.529 468.218 315.028L467.773 314.778C467.821 314.453 467.76 314.122 467.598 313.837C467.317 313.087 467.24 312.276 467.375 311.487C467.511 310.699 467.853 309.96 468.367 309.347C468.486 309.186 468.651 309.065 468.84 308.999C469.24 308.899 469.739 309.231 470.039 308.943C470.149 308.792 470.22 308.618 470.247 308.434C470.314 308.222 470.443 308.034 470.617 307.895C470.791 307.757 471.002 307.673 471.224 307.654C471.445 307.636 471.667 307.684 471.862 307.792C472.056 307.9 472.214 308.064 472.316 308.262L472.311 308.264Z" fill="#84CDCD"/>
<path d="M474.646 349.082H521.842V342.459H474.646V349.082Z" fill="#D1A454"/>
<path d="M40.702 285.029C40.702 285.029 38.0249 278.982 34.3064 284.218C30.588 289.454 38.0848 294.335 38.0848 294.335C38.0848 294.335 44.8191 288.395 43.7089 285.835C42.5987 283.275 40.702 285.029 40.702 285.029Z" fill="#2DA9A9"/>
<path d="M66.3464 337.346C66.3464 337.346 72.779 335.828 68.3221 331.204C63.8652 326.58 57.6895 333.053 57.6895 333.053C57.6895 333.053 62.2863 340.772 65.0024 340.153C67.7185 339.534 66.3464 337.346 66.3464 337.346Z" fill="#2DA9A9"/>
<path d="M57.3057 298.867C57.1178 298.214 57.1634 297.516 57.4346 296.894C57.5585 296.418 57.6344 295.932 57.6614 295.442C57.7117 295.12 57.6405 294.791 57.4616 294.519C57.2873 294.365 57.0729 294.265 56.8436 294.23C56.6144 294.194 56.3798 294.225 56.1675 294.319C55.7454 294.511 55.288 294.613 54.8244 294.619C54.6218 294.591 54.4299 294.511 54.2679 294.386C54.1059 294.262 53.9794 294.097 53.901 293.908C53.8141 293.688 53.7951 293.445 53.6932 293.232C53.594 293.086 53.4664 292.961 53.3181 292.866C53.1697 292.771 53.0036 292.707 52.8298 292.677C52.6559 292.648 52.478 292.654 52.3066 292.695C52.1352 292.737 51.9739 292.812 51.8325 292.918C51.2782 293.373 50.8644 293.977 50.6393 294.659C49.8952 296.06 49.489 297.617 49.4531 299.204C49.6073 300.256 49.8154 301.299 50.0767 302.33L50.3635 301.975L52.8128 302.483C53.1179 302.564 53.4337 302.598 53.7491 302.583C54.3122 302.451 54.844 302.21 55.314 301.874C55.8944 301.622 56.4501 301.317 56.9739 300.963C57.2327 300.779 57.4271 300.519 57.5292 300.218C57.6313 299.918 57.636 299.593 57.5425 299.29C57.4726 299.14 57.3746 299.011 57.3057 298.867Z" fill="#2DA9A9"/>
<path d="M34.7704 301.182C34.7912 300.832 34.9051 300.495 35.1002 300.204C35.377 299.893 35.8397 299.849 36.2114 299.66C36.5019 299.486 36.7445 299.243 36.9172 298.952C37.09 298.661 37.1874 298.332 37.2008 297.994C37.2204 297.318 37.1255 296.643 36.92 295.999C36.9009 295.862 36.8353 295.736 36.7341 295.642C36.6129 295.573 36.4701 295.552 36.3344 295.584C35.5162 295.695 34.7684 296.106 34.2358 296.737C34.1429 296.878 34.0138 296.991 33.8621 297.065C33.5283 297.18 33.2105 296.834 33.0966 296.5C32.9497 296.068 32.9567 295.6 32.8118 295.164C32.6669 294.728 32.2822 294.314 31.8305 294.373C31.3308 294.438 31.08 295.027 31.046 295.533C31.0885 296.039 31.0129 296.547 30.8252 297.019C30.7738 297.113 30.697 297.192 30.6033 297.245C30.2646 297.417 29.9198 297.054 29.588 296.87C29.2906 296.734 28.9554 296.706 28.6397 296.791C28.324 296.875 28.0474 297.067 27.8572 297.333C27.676 297.605 27.5547 297.913 27.5015 298.236C27.4482 298.558 27.4642 298.889 27.5485 299.205C27.7203 299.835 27.9818 300.437 28.3249 300.993C28.9165 302.063 29.5078 303.133 30.0987 304.203L29.8878 304.531C30.9733 304.689 32.0785 304.432 32.9833 303.811C33.8881 303.191 34.5262 302.252 34.7704 301.182Z" fill="#2DA9A9"/>
<path d="M20.9669 312.639C20.3673 312.224 20.4143 311.185 19.7528 310.887C19.4495 310.782 19.1175 310.796 18.8244 310.927C18.4286 311.036 18.0766 311.266 17.8172 311.585C17.5578 311.903 17.4037 312.294 17.3764 312.704C17.4224 313.582 18.3138 314.386 17.992 315.204C17.8274 315.507 17.607 315.775 17.3424 315.995C17.0701 316.264 16.8696 316.598 16.7592 316.965C16.6489 317.331 16.6323 317.72 16.7109 318.095C16.806 318.465 17.0346 318.787 17.3527 318.999C17.6707 319.21 18.0558 319.297 18.4337 319.241C18.6176 319.172 18.8119 319.135 19.0083 319.131C19.7587 319.218 19.6128 320.621 20.3403 320.823C20.5026 320.842 20.667 320.826 20.8223 320.775C20.9776 320.724 21.12 320.64 21.2397 320.529C22.239 319.832 23.2333 319.129 24.2226 318.42L24.0398 318.53C24.2013 318.347 24.3231 318.132 24.3975 317.899C24.472 317.666 24.4975 317.42 24.4725 317.177C24.4911 316.29 24.4598 315.403 24.3785 314.519C24.3156 313.829 24.1367 313.019 23.5001 312.749C22.7007 312.409 21.6754 313.132 20.9669 312.639Z" fill="#2DA9A9"/>
<path d="M44.387 320.776C43.9253 320.215 44.2481 319.227 43.6875 318.761C43.4255 318.579 43.1041 318.502 42.7881 318.548C42.3775 318.546 41.9764 318.672 41.6405 318.908C41.3046 319.145 41.0505 319.48 40.9134 319.867C40.7206 320.724 41.3601 321.74 40.8295 322.44C40.5892 322.687 40.3043 322.886 39.9901 323.026C39.6555 323.212 39.3726 323.478 39.1674 323.801C38.9621 324.124 38.8409 324.493 38.8149 324.875C38.8058 325.257 38.9386 325.629 39.1875 325.92C39.4365 326.21 39.784 326.397 40.163 326.446C40.3585 326.429 40.5555 326.446 40.7455 326.495C41.4451 326.782 40.9244 328.095 41.57 328.485C41.7204 328.546 41.8823 328.575 42.0446 328.567C42.2069 328.56 42.3658 328.518 42.5103 328.444C43.6609 328.044 44.8084 327.636 45.9529 327.221L45.7471 327.278C45.9521 327.145 46.1274 326.971 46.2621 326.767C46.3967 326.563 46.4878 326.334 46.5295 326.093C46.7865 325.244 46.996 324.381 47.1571 323.509C47.2703 323.181 47.296 322.83 47.2317 322.489C47.1673 322.149 47.0152 321.831 46.7903 321.567C46.1138 321.025 44.9346 321.443 44.387 320.776Z" fill="#2DA9A9"/>
<path d="M68.605 300.589C68.9478 299.979 69.8362 299.889 70.2399 299.315C70.3769 299.096 70.4447 298.841 70.4343 298.583C70.424 298.325 70.336 298.076 70.1819 297.869C70.0232 297.665 69.8255 297.496 69.6003 297.37C69.3752 297.244 69.1271 297.165 68.8709 297.137C68.3302 297.062 67.6927 297.124 67.3329 296.713C67.1704 296.483 67.0637 296.219 67.0211 295.941C66.8509 295.264 66.5847 294.614 66.2307 294.013C66.1554 293.852 66.0303 293.719 65.8739 293.635C65.6526 293.576 65.4172 293.606 65.2174 293.718C64.3535 293.87 63.5619 294.297 62.9603 294.936C62.3587 295.575 61.9793 296.391 61.8787 297.263C61.7228 297.943 61.5663 298.622 61.409 299.301C61.2738 299.745 61.234 300.214 61.2921 300.675L60.6036 300.227C60.6001 300.556 60.7174 300.876 60.9334 301.125C61.1494 301.374 61.4491 301.535 61.7758 301.578C61.9657 301.597 62.1585 301.573 62.3494 301.587C62.826 301.663 63.2764 301.855 63.6605 302.148L65.4372 303.286C65.9262 303.651 66.4884 303.905 67.0851 304.032C67.3847 304.088 67.6943 304.048 67.9696 303.917C68.2449 303.786 68.4715 303.571 68.617 303.303C68.9758 302.455 68.1513 301.395 68.605 300.589Z" fill="#2DA9A9"/>
<path d="M68.1748 322.286C67.9827 322.138 67.7634 322.029 67.5292 321.965C67.1323 321.869 66.7454 321.735 66.374 321.565C66.1886 321.479 66.0285 321.346 65.9089 321.18C65.7892 321.014 65.714 320.82 65.6905 320.616C65.6735 320.11 66.0972 319.564 65.8124 319.145C65.7137 319.011 65.5675 318.92 65.4037 318.89C64.9414 318.86 64.486 319.015 64.1376 319.32L62.3658 320.514C62.1105 320.655 61.8983 320.862 61.7522 321.114C61.6564 321.414 61.6318 321.732 61.6803 322.043C61.7126 323.048 61.349 324.025 60.668 324.764L60.8119 325.255C61.1387 325.28 61.4478 325.414 61.6893 325.635C62.3561 326.077 63.1284 326.334 63.9269 326.379C64.7255 326.424 65.5217 326.256 66.2341 325.892C66.4177 325.813 66.5728 325.679 66.6788 325.509C66.8687 325.142 66.6548 324.578 67.0016 324.354C67.1725 324.281 67.3588 324.25 67.5442 324.265C67.7659 324.247 67.9772 324.164 68.1513 324.025C68.3254 323.887 68.4544 323.699 68.522 323.487C68.5895 323.275 68.5926 323.048 68.5308 322.834C68.4689 322.62 68.345 322.43 68.1748 322.286Z" fill="#2DA9A9"/>
<path d="M57.706 314.96C57.514 314.812 57.2946 314.703 57.0604 314.639C56.6635 314.543 56.2767 314.409 55.9053 314.239C55.7201 314.152 55.5602 314.019 55.4406 313.853C55.321 313.687 55.2457 313.493 55.2217 313.289C55.2047 312.783 55.6284 312.237 55.3436 311.819C55.245 311.685 55.0988 311.593 54.9349 311.563C54.4725 311.533 54.0172 311.688 53.6688 311.994L51.897 313.187C51.6417 313.328 51.4296 313.535 51.2835 313.787C51.1882 314.087 51.1636 314.405 51.2115 314.716C51.2441 315.721 50.8805 316.698 50.1992 317.437L50.3431 317.928C50.6701 317.953 50.9791 318.087 51.2205 318.309C51.8874 318.751 52.6597 319.008 53.4583 319.053C54.2569 319.098 55.0531 318.929 55.7654 318.565C55.949 318.486 56.1041 318.352 56.21 318.182C56.3999 317.815 56.1861 317.251 56.5328 317.027C56.7041 316.954 56.8907 316.923 57.0764 316.938C57.2981 316.92 57.5093 316.837 57.6834 316.698C57.8574 316.56 57.9864 316.372 58.0539 316.16C58.1213 315.948 58.1243 315.721 58.0624 315.507C58.0004 315.294 57.8764 315.103 57.706 314.96Z" fill="#2DA9A9"/>
<path d="M24.311 309.419C24.3705 309.654 24.4754 309.876 24.6198 310.072C24.8721 310.393 25.0933 310.737 25.2803 311.1C25.3721 311.283 25.4157 311.486 25.4069 311.691C25.3982 311.896 25.3374 312.095 25.2304 312.27C24.9306 312.678 24.26 312.844 24.2251 313.349C24.2188 313.515 24.2772 313.678 24.3879 313.803C24.7327 314.113 25.1862 314.273 25.6491 314.249L27.7786 314.409C28.0661 314.456 28.3612 314.425 28.632 314.317C28.8922 314.14 29.108 313.906 29.2626 313.632C29.8584 312.822 30.7486 312.279 31.7408 312.121L31.9307 311.646C31.6894 311.424 31.5296 311.127 31.477 310.804C31.2264 310.044 30.7784 309.364 30.179 308.834C29.5795 308.304 28.8501 307.944 28.0654 307.789C27.8718 307.738 27.6673 307.746 27.4788 307.814C27.1031 307.985 26.9222 308.56 26.5115 308.522C26.3317 308.473 26.1665 308.381 26.0298 308.255C25.8445 308.132 25.6268 308.067 25.4044 308.068C25.1821 308.069 24.9651 308.136 24.7809 308.261C24.5967 308.385 24.4538 308.562 24.3701 308.768C24.2864 308.974 24.2659 309.201 24.311 309.419Z" fill="#2DA9A9"/>
<path d="M45.7382 351.255C44.521 346.344 42.0987 339.309 37.4689 333.674C35.9242 331.91 34.212 330.3 32.3565 328.868C30.0584 327.122 27.9933 325.088 26.2118 322.817C24.8862 320.873 23.782 318.786 22.9201 316.597C22.4744 315.573 22.0137 314.512 21.494 313.484C20.3824 311.635 19.0068 309.959 17.4109 308.509C16.9372 308.029 16.4745 307.561 16.0488 307.109L17.6547 305.601C18.0694 306.043 18.5171 306.501 18.9778 306.963C20.7373 308.573 22.2475 310.436 23.4587 312.492C24.0083 313.577 24.482 314.668 24.9397 315.722C25.7381 317.763 26.7624 319.708 27.9935 321.522C29.6661 323.643 31.6035 325.542 33.7585 327.171C35.7234 328.693 37.5357 330.403 39.1698 332.277C44.0614 338.229 46.6046 345.595 47.8757 350.726L45.7382 351.255Z" fill="#8B383E"/>
<path d="M42.3161 347.719C39.3692 340.532 42.0004 332.49 44.9633 325.571L45.45 324.441C48.1751 318.107 50.9941 311.559 49.8469 305.041C49.729 304.374 49.5701 303.709 49.4112 303.046C48.8149 301.237 48.6094 299.322 48.8084 297.427C49.0074 295.532 49.6063 293.701 50.5654 292.055L57.5316 275.988L59.5512 276.866L52.585 292.933C51.6997 294.662 51.1429 296.541 50.9431 298.473C50.966 299.848 51.1713 301.214 51.5537 302.534C51.7216 303.24 51.8895 303.947 52.0154 304.658C53.2805 311.822 50.3306 318.678 47.4766 325.309L46.9919 326.436C44.2088 332.936 41.7196 340.446 44.3577 346.88L42.3161 347.719Z" fill="#8B383E"/>
<path d="M48.4646 346.322L46.4141 345.504C47.5782 342.594 49.0406 339.812 50.778 337.204C51.2004 336.501 51.7489 335.883 52.3959 335.38C52.9406 335.021 53.5325 334.739 54.1547 334.544C54.3545 334.473 54.5544 334.402 54.7473 334.321C56.2711 333.688 57.4858 332.482 58.1299 330.962C58.5533 329.788 58.8175 328.563 58.9154 327.319C58.9461 325.632 59.3703 323.976 60.1542 322.483C60.9381 320.99 62.06 319.701 63.4302 318.719L77.0448 306.426L78.5198 308.063L64.9102 320.355C63.735 321.161 62.7741 322.243 62.111 323.505C61.4479 324.768 61.1025 326.173 61.1048 327.599C60.9862 329.042 60.6702 330.462 60.1655 331.82C59.2934 333.874 57.6513 335.504 55.5917 336.361C55.3668 336.454 55.136 336.537 54.9052 336.62C54.4742 336.751 54.0621 336.938 53.679 337.176C53.2547 337.529 52.8949 337.953 52.6158 338.429C50.9623 340.909 49.5711 343.554 48.4646 346.322Z" fill="#8B383E"/>
<path d="M38.7673 348.296C37.6381 342.668 36.469 336.848 36.9686 330.93C37.0036 330.508 37.0465 330.08 37.0895 329.65C37.3353 327.181 37.5892 324.63 36.381 322.767C36.0107 322.24 35.5922 321.75 35.1309 321.302C34.966 321.13 34.8011 320.958 34.6392 320.784C31.2976 317.146 29.5364 312.329 29.7426 307.392C29.8159 306.194 29.9494 305.001 30.1423 303.817C30.3236 302.701 30.4487 301.576 30.5171 300.448C30.592 298.713 30.3662 296.316 28.8652 294.748L30.4571 293.225C32.4947 295.358 32.8105 298.383 32.7176 300.547C32.6453 301.749 32.5119 302.947 32.3178 304.137C32.1366 305.248 32.0112 306.368 31.9421 307.493C31.7618 311.843 33.3153 316.088 36.2611 319.293C36.412 319.456 36.5679 319.617 36.7228 319.778C37.2825 320.326 37.7885 320.927 38.2337 321.572C39.8626 324.084 39.5558 327.159 39.286 329.872C39.244 330.29 39.203 330.707 39.1681 331.117C38.7014 336.724 39.8366 342.389 40.9348 347.867L38.7673 348.296Z" fill="#8B383E"/>
<path d="M52.9979 348.243C46.2785 336.38 45.2363 323.403 50.2098 313.53C52.4592 309.064 55.8519 305.341 59.1326 301.739C59.961 300.83 60.7895 299.921 61.5989 299.002C65.0445 295.084 69.0937 289.814 69.7932 283.767L71.9807 284.022C71.2062 290.675 66.9082 296.301 63.2507 300.457C62.4323 301.386 61.5959 302.305 60.7585 303.225C57.5777 306.716 54.289 310.325 52.1754 314.525C47.5347 323.737 48.5579 335.937 54.9135 347.159L52.9979 348.243Z" fill="#8B383E"/>
<path d="M40.5502 350.233C38.7734 340.85 36.7598 330.215 38.6355 320.033C38.8284 318.988 39.0612 317.95 39.2941 316.913C39.736 315.127 40.0647 313.315 40.2784 311.488C40.901 304.999 38.6425 298.868 36.2522 292.378C34.3625 287.248 32.4099 281.945 31.9941 276.419L34.1926 276.255C34.5833 281.472 36.482 286.629 38.3197 291.616C40.6901 298.053 43.1424 304.709 42.4719 311.699C42.2484 313.619 41.905 315.522 41.4436 317.399C41.2167 318.409 40.9899 319.419 40.802 320.435C39.0033 330.211 40.9739 340.635 42.7147 349.824L40.5502 350.233Z" fill="#8B383E"/>
<path d="M69.4565 344.408H23.0527V398.831H69.4565V344.408Z" fill="#FFCF7B"/>
<path d="M36.2098 270.696C36.2098 270.696 33.5327 264.649 29.8143 269.884C26.0958 275.119 33.5926 280.002 33.5926 280.002C33.5926 280.002 40.3269 274.062 39.2167 271.502C38.1065 268.942 36.2098 270.696 36.2098 270.696Z" fill="#84CDCD"/>
<path d="M63.0494 276.342C62.7176 275.749 62.6038 275.059 62.7276 274.39C62.7402 273.9 62.7041 273.409 62.6197 272.925C62.5954 272.6 62.4507 272.296 62.214 272.071C62.0095 271.962 61.7781 271.913 61.5469 271.931C61.3157 271.949 61.0944 272.032 60.9089 272.171C60.5415 272.455 60.1192 272.659 59.6688 272.771C59.4652 272.791 59.26 272.756 59.074 272.671C58.8879 272.586 58.7274 272.454 58.6085 272.287C58.4736 272.093 58.3997 271.86 58.2528 271.676C58.1231 271.557 57.9706 271.465 57.8046 271.406C57.6385 271.347 57.4621 271.322 57.2862 271.333C57.1103 271.343 56.9383 271.39 56.7807 271.469C56.6231 271.548 56.4831 271.658 56.3691 271.792C55.9325 272.362 55.6664 273.043 55.6016 273.758C55.1932 275.294 55.1501 276.903 55.4757 278.458C55.8636 279.447 56.3022 280.415 56.7898 281.358L56.9896 280.948L59.4879 280.888C59.8033 280.896 60.1181 280.856 60.4212 280.768C60.9399 280.513 61.4031 280.159 61.7843 279.724C62.2929 279.347 62.7652 278.924 63.1953 278.459C63.4066 278.222 63.5374 277.925 63.5688 277.609C63.6003 277.293 63.5307 276.975 63.3702 276.701C63.2753 276.569 63.1504 276.466 63.0494 276.342Z" fill="#84CDCD"/>
<path d="M41.1177 305.184C40.686 305.106 40.4102 304.698 40.1334 304.359C39.9323 304.111 39.707 303.885 39.4608 303.683C39.3115 303.533 39.1115 303.444 38.9002 303.435C38.6004 303.454 38.4006 303.752 38.3006 304.035C38.2393 304.33 38.1175 304.609 37.9429 304.855C37.8509 304.95 37.7353 305.02 37.6078 305.057C37.4802 305.094 37.3452 305.097 37.2164 305.065C37.0675 305.027 36.9336 304.944 36.7827 304.915C36.327 304.83 35.9243 305.307 35.9043 305.77C35.9301 306.235 36.0874 306.683 36.358 307.063C36.8059 307.991 37.4647 308.802 38.2816 309.43C38.8915 309.752 39.5176 310.043 40.1573 310.302L40.0814 310.016L41.2876 308.927C41.4467 308.797 41.5849 308.644 41.6973 308.473C41.8446 308.127 41.9224 307.756 41.9261 307.381C42.0176 306.98 42.0715 306.571 42.087 306.161C42.0904 305.954 42.0285 305.752 41.9102 305.584C41.792 305.415 41.6233 305.288 41.4285 305.221C41.3235 305.2 41.2176 305.202 41.1177 305.184Z" fill="#84CDCD"/>
<path d="M52.646 331.272C52.2522 331.081 52.0973 330.614 51.9225 330.212C51.7955 329.919 51.6395 329.64 51.4568 329.379C51.3537 329.194 51.185 329.054 50.9841 328.988C50.8339 328.979 50.6844 329.014 50.5532 329.087C50.422 329.161 50.3146 329.271 50.2436 329.404C50.1045 329.671 49.9116 329.907 49.677 330.097C49.5624 330.164 49.4322 330.199 49.2995 330.2C49.1667 330.201 49.036 330.167 48.9206 330.102C48.7886 330.026 48.6807 329.909 48.5438 329.841C48.4347 329.805 48.3197 329.793 48.2056 329.803C48.0916 329.814 47.9809 329.848 47.8802 329.902C47.7795 329.957 47.6909 330.032 47.6198 330.122C47.5487 330.212 47.4966 330.315 47.4666 330.426C47.3658 330.881 47.396 331.355 47.5535 331.794C47.7341 332.809 48.1495 333.768 48.7667 334.594C49.2661 335.069 49.7898 335.519 50.3356 335.941V335.641L51.7906 334.92C51.9789 334.838 52.1535 334.728 52.3082 334.593C52.5432 334.3 52.7184 333.964 52.8238 333.604C53.02 333.242 53.1823 332.864 53.3085 332.473C53.3673 332.275 53.3623 332.064 53.2941 331.869C53.2259 331.675 53.098 331.507 52.9288 331.39C52.8418 331.344 52.7399 331.318 52.646 331.272Z" fill="#84CDCD"/>
<path d="M59.7049 301.045C59.3112 300.853 59.1553 300.386 58.9814 299.984C58.8541 299.692 58.6981 299.413 58.5157 299.151C58.4123 298.966 58.2438 298.827 58.0431 298.76C57.8927 298.752 57.7431 298.786 57.6118 298.86C57.4804 298.934 57.3728 299.043 57.3016 299.176C57.1631 299.444 56.9705 299.68 56.736 299.869C56.6215 299.936 56.4913 299.972 56.3585 299.973C56.2258 299.974 56.095 299.94 55.9795 299.875C55.8466 299.798 55.7397 299.681 55.6028 299.613C55.4937 299.578 55.3787 299.566 55.2647 299.577C55.1508 299.587 55.0401 299.621 54.9395 299.676C54.8389 299.73 54.7504 299.805 54.6792 299.895C54.6081 299.984 54.5558 300.088 54.5255 300.198C54.4243 300.653 54.4544 301.128 54.6124 301.566C54.7931 302.581 55.2081 303.54 55.8246 304.366C56.3245 304.842 56.8482 305.291 57.3935 305.714V305.414L58.8495 304.692C59.0373 304.61 59.2115 304.5 59.3661 304.366C59.6018 304.073 59.7774 303.737 59.8828 303.376C60.079 303.015 60.2409 302.636 60.3664 302.245C60.4254 302.048 60.4206 301.837 60.3526 301.643C60.2845 301.448 60.1568 301.28 59.9877 301.163C59.9048 301.117 59.7978 301.09 59.7049 301.045Z" fill="#84CDCD"/>
<path d="M52.5093 291.186C52.1155 290.994 51.9606 290.528 51.7858 290.126C51.6591 289.833 51.503 289.554 51.3201 289.293C51.2167 289.108 51.0481 288.969 50.8474 288.902C50.6972 288.893 50.5477 288.928 50.4165 289.002C50.2853 289.075 50.1779 289.185 50.1069 289.318C49.9681 289.585 49.7751 289.821 49.5403 290.01C49.4258 290.077 49.2957 290.113 49.1629 290.114C49.0301 290.115 48.8994 290.081 48.7839 290.016C48.6509 289.939 48.544 289.822 48.4071 289.754C48.298 289.719 48.1829 289.707 48.0689 289.717C47.9549 289.728 47.8442 289.762 47.7436 289.817C47.643 289.872 47.5544 289.946 47.4833 290.036C47.4122 290.126 47.36 290.229 47.3299 290.34C47.2291 290.794 47.2592 291.268 47.4168 291.707C47.597 292.722 48.0125 293.681 48.63 294.507C49.1292 294.983 49.6528 295.433 50.1989 295.855V295.555L51.6539 294.833C51.842 294.751 52.0165 294.641 52.1715 294.507C52.4063 294.214 52.5815 293.878 52.6871 293.518C52.8833 293.156 53.0456 292.778 53.1718 292.387C53.2308 292.189 53.2258 291.978 53.1576 291.783C53.0894 291.589 52.9614 291.421 52.7921 291.304C52.7091 291.255 52.6092 291.232 52.5093 291.186Z" fill="#84CDCD"/>
<path d="M29.5331 290.791C29.2087 290.659 28.9254 290.443 28.7127 290.166C28.5058 289.804 28.6127 289.351 28.5528 288.938C28.4814 288.607 28.3287 288.299 28.1085 288.042C27.8883 287.785 27.6075 287.587 27.2917 287.467C26.6578 287.232 25.9888 287.106 25.313 287.095C25.1766 287.069 25.0355 287.091 24.9133 287.157C24.8091 287.25 24.7438 287.379 24.7304 287.519C24.5731 288.33 24.7231 289.171 25.1511 289.878C25.2548 290.01 25.3204 290.169 25.341 290.337C25.341 290.69 24.9153 290.881 24.5616 290.882C24.1059 290.882 23.6622 290.726 23.2055 290.725C22.9783 290.703 22.7506 290.758 22.5581 290.881C22.3656 291.003 22.2193 291.187 22.1422 291.402C22.0423 291.902 22.522 292.323 22.9896 292.517C23.4823 292.637 23.9399 292.872 24.3257 293.202C24.3996 293.28 24.4495 293.378 24.4696 293.485C24.5236 293.86 24.0699 294.071 23.7901 294.327C23.5666 294.565 23.4329 294.874 23.4117 295.2C23.3906 295.527 23.4833 295.85 23.6742 296.116C23.8739 296.374 24.1263 296.588 24.4147 296.742C24.7031 296.895 25.0209 296.986 25.347 297.008C25.9991 297.046 26.6532 296.991 27.2897 296.844L30.8952 296.188L31.139 296.494C31.6366 295.515 31.7477 294.385 31.4501 293.328C31.1525 292.271 30.4681 291.365 29.5331 290.791Z" fill="#84CDCD"/>
<path d="M68.9902 299.267C69.2745 299.138 69.5881 299.088 69.8985 299.12C70.2593 299.208 70.4871 299.555 70.7899 299.77C71.0478 299.927 71.3406 300.017 71.6419 300.032C71.9432 300.047 72.2435 299.986 72.5157 299.856C73.0566 299.589 73.5488 299.233 73.9717 298.803C74.0699 298.73 74.1404 298.626 74.1716 298.508C74.1752 298.383 74.1321 298.262 74.0506 298.167C73.6223 297.567 72.9866 297.148 72.2669 296.991C72.117 296.977 71.9738 296.922 71.8522 296.833C71.6223 296.617 71.7622 296.223 71.9791 295.993C72.2579 295.693 72.6326 295.506 72.9124 295.211C73.0649 295.078 73.1687 294.897 73.2076 294.698C73.2465 294.499 73.2182 294.292 73.1273 294.111C72.8665 293.742 72.2989 293.791 71.8861 293.976C71.5054 294.221 71.0729 294.373 70.623 294.421C70.527 294.42 70.4333 294.392 70.3522 294.34C70.0764 294.14 70.2183 293.721 70.2243 293.383C70.2073 293.092 70.0896 292.815 69.8915 292.601C69.6934 292.387 69.427 292.249 69.1381 292.209C68.8488 292.181 68.5567 292.214 68.2811 292.306C68.0055 292.399 67.7526 292.549 67.5392 292.746C67.1138 293.144 66.7479 293.602 66.4529 294.104L64.6632 296.842L64.3164 296.812C64.6457 297.733 65.309 298.497 66.1747 298.952C67.0405 299.407 68.0454 299.519 68.9902 299.267Z" fill="#84CDCD"/>
<path d="M38.0084 336.17C37.7019 336.046 37.4342 335.841 37.2329 335.579C37.0331 335.236 37.139 334.808 37.082 334.418C37.0146 334.105 36.8701 333.814 36.6618 333.571C36.4534 333.327 36.1878 333.14 35.8889 333.026C35.2894 332.803 34.6565 332.684 34.0172 332.674C33.8889 332.65 33.7562 332.671 33.6414 332.733C33.5424 332.821 33.4803 332.943 33.4676 333.075C33.3197 333.842 33.4622 334.638 33.8673 335.306C33.9655 335.432 34.028 335.582 34.0481 335.741C34.0481 336.075 33.6484 336.255 33.3107 336.256C32.879 336.256 32.4583 336.109 32.0276 336.108C31.8127 336.088 31.5972 336.139 31.4152 336.255C31.2331 336.371 31.0948 336.545 31.0223 336.748C30.9283 337.218 31.381 337.619 31.8217 337.802C32.2877 337.917 32.7205 338.139 33.0858 338.451C33.1548 338.525 33.2016 338.618 33.2207 338.718C33.2717 339.073 32.843 339.273 32.5782 339.518C32.3667 339.743 32.2401 340.035 32.22 340.344C32.2 340.653 32.2877 340.959 32.4682 341.21C32.6572 341.455 32.8961 341.657 33.169 341.802C33.4419 341.948 33.7426 342.033 34.0511 342.054C34.668 342.09 35.2868 342.038 35.8889 341.899L39.2995 341.279L39.5303 341.568C40.0017 340.642 40.1069 339.571 39.8248 338.571C39.5427 337.57 38.8941 336.713 38.0084 336.17Z" fill="#84CDCD"/>
<path d="M16.5935 301.654C16.1148 301.108 16.4056 300.11 15.835 299.662C15.5661 299.487 15.2405 299.421 14.9247 299.478C14.5142 299.489 14.1173 299.627 13.7889 299.874C13.4606 300.121 13.217 300.464 13.0919 300.855C12.9261 301.718 13.5976 302.713 13.0919 303.43C12.8595 303.684 12.5811 303.891 12.2715 304.041C11.9428 304.237 11.6683 304.512 11.4732 304.842C11.278 305.171 11.1684 305.544 11.1543 305.927C11.1577 306.309 11.3026 306.677 11.5609 306.959C11.8193 307.241 12.1728 307.417 12.5533 307.454C12.7482 307.432 12.9454 307.442 13.1369 307.485C13.8444 307.75 13.3658 309.077 14.0243 309.448C14.1765 309.504 14.3392 309.527 14.5011 309.515C14.663 309.503 14.8205 309.456 14.9626 309.378C16.0999 308.941 17.2324 308.498 18.3603 308.047L18.1604 308.11C18.3608 307.97 18.5303 307.791 18.6582 307.583C18.7861 307.375 18.8698 307.143 18.9039 306.901C19.1347 306.045 19.3175 305.177 19.4515 304.301C19.5542 303.97 19.5687 303.618 19.4935 303.279C19.4183 302.941 19.2561 302.628 19.0228 302.372C18.3333 301.846 17.1621 302.301 16.5935 301.654Z" fill="#84CDCD"/>
<path d="M49.1578 313.58C48.844 312.925 49.3947 312.043 48.966 311.457C48.7543 311.216 48.4588 311.064 48.1395 311.033C47.7414 310.932 47.3217 310.958 46.9389 311.107C46.556 311.256 46.2289 311.52 46.003 311.863C45.6103 312.649 45.987 313.788 45.3035 314.341C45.0111 314.523 44.6869 314.647 44.3482 314.708C43.9788 314.808 43.6402 314.998 43.3634 315.262C43.0865 315.526 42.8802 315.856 42.7633 316.22C42.663 316.589 42.7026 316.982 42.8745 317.323C43.0465 317.665 43.3386 317.93 43.6946 318.069C43.8885 318.1 44.0757 318.163 44.2482 318.257C44.8578 318.703 44.0384 319.857 44.571 320.387C44.7025 320.483 44.853 320.549 45.0124 320.581C45.1717 320.613 45.3362 320.61 45.4944 320.573C46.7062 320.46 47.9177 320.34 49.1289 320.213L48.916 320.218C49.1467 320.138 49.3584 320.012 49.538 319.847C49.7175 319.681 49.8609 319.481 49.9593 319.257C50.4128 318.495 50.8235 317.707 51.1894 316.899C51.3781 316.608 51.4874 316.273 51.5065 315.927C51.5256 315.58 51.4538 315.235 51.2983 314.925C50.7777 314.238 49.5296 314.354 49.1578 313.58Z" fill="#84CDCD"/>
<path d="M74.1243 281.855C73.8245 281.225 74.2532 280.442 74.0144 279.784C73.9131 279.546 73.7426 279.345 73.5251 279.206C73.3076 279.067 73.0532 278.996 72.7952 279.005C72.5377 279.018 72.2856 279.084 72.0539 279.197C71.8221 279.31 71.6155 279.469 71.4462 279.664C71.0755 280.064 70.7617 280.624 70.22 280.684C69.9389 280.686 69.661 280.622 69.4086 280.499C68.7557 280.251 68.071 280.098 67.375 280.045C67.1999 280.015 67.0199 280.042 66.8614 280.123C66.6869 280.271 66.5766 280.481 66.5536 280.71C66.1845 281.506 66.0824 282.4 66.2625 283.259C66.4425 284.118 66.8952 284.896 67.5529 285.477C68.0192 285.993 68.4856 286.51 68.9519 287.026C69.2393 287.392 69.6006 287.693 70.0122 287.909L69.2507 288.219C69.5192 288.41 69.8483 288.496 70.1758 288.46C70.5033 288.425 70.8067 288.271 71.0285 288.028C71.1534 287.882 71.2433 287.71 71.3643 287.561C71.699 287.213 72.1144 286.954 72.5734 286.806L74.5221 285.998C75.1009 285.805 75.6309 285.488 76.075 285.07C76.2925 284.856 76.4365 284.579 76.4865 284.278C76.5364 283.977 76.4896 283.668 76.3528 283.396C75.8641 282.616 74.526 282.689 74.1243 281.855Z" fill="#84CDCD"/>
<path d="M29.9261 318.142C29.5364 317.607 29.6783 316.742 29.3325 316.167C29.2233 315.974 29.0517 315.823 28.8458 315.741C28.6398 315.658 28.4119 315.647 28.1993 315.711C27.9924 315.8 27.8068 315.932 27.655 316.099C27.5032 316.265 27.3886 316.462 27.3189 316.676C27.1311 317.154 27.0261 317.77 26.6194 317.96C26.4018 318.032 26.1682 318.038 25.9469 317.979C25.3873 317.899 24.8179 317.918 24.265 318.036C24.1184 318.053 23.9835 318.124 23.8873 318.236C23.7872 318.434 23.7542 318.66 23.7934 318.878C23.7767 319.992 24.0388 321.092 24.5558 322.078C24.8838 322.528 25.2823 322.923 25.736 323.245L27.199 324.401C27.4944 324.676 27.8485 324.879 28.2343 324.995L27.7226 325.48C27.8491 325.537 27.9865 325.567 28.1253 325.566C28.2641 325.565 28.4011 325.534 28.527 325.476C28.6528 325.417 28.7646 325.332 28.8546 325.227C28.9447 325.121 29.0109 324.997 29.0487 324.863C29.1087 324.692 29.1367 324.504 29.1936 324.331C29.3528 323.932 29.6103 323.579 29.9421 323.306L31.2492 322.051C31.6639 321.704 31.996 321.269 32.2215 320.777C32.3358 320.503 32.3775 320.203 32.3425 319.908C32.3075 319.613 32.197 319.331 32.0217 319.091C31.458 318.454 30.4418 318.848 29.9261 318.142Z" fill="#84CDCD"/>
<path d="M63.0141 322.598C62.7843 321.977 63.153 321.186 62.9771 320.536C62.924 320.321 62.7994 320.13 62.6237 319.994C62.448 319.859 62.2316 319.787 62.0098 319.79C61.7864 319.82 61.572 319.897 61.3807 320.016C61.1894 320.135 61.0257 320.294 60.9006 320.481C60.5908 320.89 60.323 321.455 59.8823 321.529C59.6539 321.538 59.4277 321.481 59.2307 321.365C58.7135 321.137 58.1601 321.001 57.5959 320.965C57.4503 320.941 57.3009 320.973 57.1782 321.055C57.0285 321.219 56.9359 321.426 56.9144 321.647C56.5977 322.714 56.553 323.843 56.7844 324.931C56.9773 325.454 57.2541 325.941 57.6039 326.374C57.9696 326.877 58.336 327.38 58.7031 327.884C58.9139 328.228 59.1999 328.519 59.5395 328.736L58.916 329.064C59.0223 329.153 59.1466 329.219 59.2804 329.255C59.4142 329.292 59.5543 329.3 59.6912 329.277C59.8282 329.255 59.9587 329.204 60.074 329.126C60.1892 329.049 60.2864 328.948 60.359 328.829C60.4639 328.681 60.5408 328.507 60.6428 328.356C60.9046 328.015 61.2483 327.745 61.6421 327.572L63.241 326.717C63.7341 326.496 64.1715 326.167 64.5211 325.754C64.706 325.521 64.8277 325.245 64.8744 324.951C64.9211 324.658 64.8913 324.357 64.7879 324.078C64.4022 323.311 63.3179 323.417 63.0141 322.598Z" fill="#84CDCD"/>
<path d="M82.7548 306.937C82.5625 306.788 82.3428 306.679 82.1083 306.616C81.7117 306.52 81.3252 306.386 80.9541 306.216C80.7685 306.129 80.6082 305.997 80.4884 305.831C80.3685 305.664 80.2932 305.47 80.2696 305.267C80.2536 304.761 80.6773 304.215 80.3925 303.796C80.2936 303.662 80.1474 303.571 79.9838 303.541C79.5214 303.511 79.066 303.665 78.7176 303.971L76.9449 305.165C76.6899 305.305 76.4781 305.513 76.3323 305.765C76.236 306.065 76.2114 306.383 76.2603 306.694C76.2917 307.698 75.9282 308.675 75.248 309.415L75.3919 309.906C75.7184 309.93 76.0271 310.064 76.2683 310.286C76.9352 310.728 77.7075 310.985 78.5061 311.03C79.3048 311.075 80.101 310.906 80.8132 310.542C80.9969 310.462 81.1522 310.329 81.2589 310.16C81.4477 309.793 81.2349 309.229 81.5807 309.005C81.752 308.932 81.9385 308.901 82.1243 308.916C82.346 308.898 82.5573 308.814 82.7314 308.676C82.9054 308.537 83.0345 308.35 83.102 308.138C83.1696 307.926 83.1727 307.698 83.1109 307.484C83.049 307.271 82.9251 307.08 82.7548 306.937Z" fill="#84CDCD"/>
<path d="M68.4617 309.56C68.2225 309.601 67.9937 309.688 67.7882 309.817C67.4486 310.044 67.0882 310.238 66.7119 310.396C66.5223 310.474 66.3161 310.501 66.1128 310.476C65.9096 310.452 65.716 310.375 65.5507 310.254C65.167 309.924 65.0511 309.242 64.5514 309.167C64.3858 309.149 64.2195 309.194 64.0867 309.295C63.7512 309.615 63.5561 310.055 63.5441 310.518C63.4349 311.222 63.3263 311.926 63.2183 312.63C63.1488 312.913 63.1575 313.21 63.2433 313.488C63.3988 313.762 63.6157 313.996 63.8769 314.171C64.6369 314.829 65.1082 315.759 65.189 316.761L65.6466 316.988C65.8865 316.765 66.1945 316.628 66.521 316.601C67.2978 316.41 68.0101 316.017 68.5848 315.46C69.1595 314.903 69.576 314.204 69.7918 313.433C69.8579 313.244 69.8652 313.039 69.8127 312.846C69.6718 312.458 69.1132 312.232 69.1832 311.825C69.2442 311.65 69.3471 311.492 69.483 311.365C69.6181 311.19 69.6983 310.978 69.7136 310.757C69.7289 310.536 69.6785 310.316 69.5688 310.123C69.4591 309.931 69.295 309.775 69.0971 309.676C68.8992 309.576 68.6764 309.538 68.4567 309.565L68.4617 309.56Z" fill="#84CDCD"/>
<path d="M69.8525 344.408H22.6562V351.031H69.8525V344.408Z" fill="#D1A454"/>
<path d="M293.86 51.3301H107.26V396.16H293.86V51.3301Z" fill="#F68B1E"/>
<g style="mix-blend-mode:multiply" opacity="0.25">
<path d="M293.861 51.3301V134.8H231.434L218.324 262.154L120.562 134.8H107.262V51.3301H293.861Z" fill="#231F20"/>
</g>
<path d="M284.785 58.4502H122.238V396.16H284.785V58.4502Z" fill="#FCDCBC"/>
<g style="mix-blend-mode:multiply" opacity="0.1">
<path d="M284.786 58.4541V362.434L173.684 251.254L160.123 58.4541H284.786Z" fill="#231F20"/>
</g>
<path d="M285.064 269.854H284.785V373.334H231.432L236.188 276.794L236.528 269.854L236.688 266.724L237.867 242.804L238.017 239.674L239.196 215.754L239.346 212.624L240.435 190.574H281.157L281.267 192.894L281.817 203.944L282.246 212.624L282.316 214.124L282.396 215.754L283.106 230.114L283.575 239.674L283.605 240.294L283.725 242.804L284.325 254.834L284.785 264.204L284.904 266.724L284.934 267.244L285.064 269.854Z" fill="#FCDCBC"/>
<path d="M285.064 269.855H284.784V373.335H260.791V192.891H284.784V264.201L284.904 266.721L284.934 267.241L285.064 269.855Z" fill="#FBC58F"/>
<path d="M284.785 203.939H279.309V214.119H284.785V203.939Z" fill="#FCDCBC"/>
<path d="M263.726 214.121H277.918V201.713H263.726V214.121Z" fill="#FCDCBC"/>
<path d="M284.784 284.71H274.961V294.89H284.784V284.71Z" fill="#FCDCBC"/>
<path d="M259.376 294.889H273.568V282.481H259.376V294.889Z" fill="#FCDCBC"/>
<path d="M280.982 224.293H262.688V240.287H280.982V224.293Z" fill="#FCDCBC"/>
<path d="M284.783 230.11H282.115V240.29H284.783V230.11Z" fill="#FCDCBC"/>
<path d="M270.823 257.062H259.18V267.241H270.823V257.062Z" fill="#FCDCBC"/>
<path d="M284.935 267.24H271.834V254.83H284.785V264.2L284.905 266.72L284.935 267.24Z" fill="#FCDCBC"/>
<path d="M284.785 332.73H283.725V348.72H284.785V332.73Z" fill="#FCDCBC"/>
<path d="M277.499 305.773H259.205V321.767H277.499V305.773Z" fill="#FCDCBC"/>
<path d="M284.784 311.59H278.639V321.77H284.784V311.59Z" fill="#FCDCBC"/>
<path d="M267.34 338.542H255.697V348.721H267.34V338.542Z" fill="#FCDCBC"/>
<path d="M282.544 336.313H268.352V348.721H282.544V336.313Z" fill="#FCDCBC"/>
<path d="M284.785 212.62H236.129V215.75H284.785V212.62Z" fill="#FEF1E4"/>
<path d="M284.786 239.67H236.18V242.8H284.786V239.67Z" fill="#FEF1E4"/>
<path d="M285.065 269.855H236.219V266.725H284.905L284.935 267.245L285.065 269.855Z" fill="#FEF1E4"/>
<path d="M284.786 293.77H236.27V296.9H284.786V293.77Z" fill="#FEF1E4"/>
<path d="M284.785 320.82H236.309V323.95H284.785V320.82Z" fill="#FEF1E4"/>
<path d="M284.786 347.87H236.35V351H284.786V347.87Z" fill="#FEF1E4"/>
<path d="M284.785 373.33H122.238V396.16H284.785V373.33Z" fill="#FCDCBC"/>
<g style="mix-blend-mode:multiply" opacity="0.1">
<path d="M285.066 269.854H284.786V325.424L283.317 323.954L265.15 305.774L260.793 301.414L256.286 296.904L253.158 293.774L236.19 276.794L236.53 269.854H236.22V266.724H236.689L237.869 242.804H236.181V239.674H238.02L239.199 215.754H236.131V212.624H239.349L240.438 190.574H281.16L281.269 192.894H284.787V264.204L284.907 266.724L284.937 267.244L285.066 269.854Z" fill="#231F20"/>
</g>
<path d="M192.671 58.4502H115.564V396.16H192.671V58.4502Z" fill="#EF5B0A"/>
<path d="M197.667 58.4502H120.561V396.16H197.667V58.4502Z" fill="#FBA43B"/>
<path d="M190.866 95.2764H127.367V357.276H190.866V95.2764Z" fill="#84CDCD"/>
<path d="M188.342 95.2764H127.367V357.276H188.342V95.2764Z" fill="#B5E1E1"/>
<g style="mix-blend-mode:multiply" opacity="0.25">
<path d="M197.667 58.4541V235.244L192.671 228.734L120.561 134.804H115.564V58.4541H197.667Z" fill="#231F20"/>
</g>
<path d="M195.67 188.49V193.89H201.526V243.548H195.67V248.948H204.996V188.49H195.67Z" fill="#CFECFF"/>
<path d="M193.67 188.49V193.89H199.526V243.548H193.67V248.948H202.996V188.49H193.67Z" fill="white"/>
<g style="mix-blend-mode:multiply" opacity="0.25">
<path d="M293.86 58.4199V97.0199C290.636 97.981 287.232 98.1756 283.92 97.5882C280.607 97.0009 277.477 95.6477 274.78 93.6366C272.082 91.6254 269.891 89.0118 268.38 86.0038C266.87 82.9957 266.082 79.6764 266.079 76.3099C266.079 79.1478 265.521 81.9579 264.436 84.5797C263.35 87.2016 261.76 89.5838 259.754 91.5905C257.749 93.5972 255.368 95.189 252.748 96.275C250.128 97.361 247.32 97.9199 244.484 97.9199C241.649 97.9199 238.84 97.361 236.22 96.275C233.6 95.189 231.22 93.5972 229.214 91.5905C227.209 89.5838 225.618 87.2016 224.533 84.5797C223.448 81.9579 222.889 79.1478 222.889 76.3099C222.889 82.0426 220.614 87.5404 216.563 91.594C212.512 95.6476 207.018 97.9249 201.289 97.9249C195.561 97.9249 190.067 95.6476 186.016 91.594C181.965 87.5404 179.689 82.0426 179.689 76.3099C179.689 82.0413 177.414 87.5378 173.364 91.5905C169.315 95.6432 163.822 97.9199 158.094 97.9199C152.367 97.9199 146.874 95.6432 142.824 91.5905C138.775 87.5378 136.499 82.0413 136.499 76.3099C136.499 82.0411 134.224 87.5374 130.174 91.5899C126.124 95.6425 120.632 97.9194 114.904 97.9199C112.292 97.9267 109.701 97.4521 107.26 96.5199V58.4199H293.86Z" fill="#231F20"/>
</g>
<path d="M521.472 51.3301H343.176V281.95H521.472V51.3301Z" fill="#CE364C"/>
<path d="M514.056 58.4502H350.59V273.94H514.056V58.4502Z" fill="#FBC58F"/>
<path d="M444.735 273.94H395.789L395.989 269.85L396.149 266.72L397.328 242.8L397.478 239.67L398.657 215.75L398.807 212.62L399.896 190.57H440.628L440.738 192.89L441.287 203.94L441.717 212.62L441.787 214.12L441.867 215.75L442.577 230.11L443.046 239.67L443.076 240.29L443.196 242.8L443.796 254.83L444.375 266.72L444.405 267.24L444.535 269.85L444.735 273.94Z" fill="white"/>
<path d="M510.287 192.891H420.26V273.941H510.287V192.891Z" fill="#FBC58F"/>
<path d="M476.577 214.121H494.871V198.127H476.577V214.121Z" fill="white"/>
<path d="M446.674 267.241H464.969V251.247H446.674V267.241Z" fill="white"/>
<path d="M463.793 214.121H475.436V203.942H463.793V214.121Z" fill="white"/>
<path d="M438.777 214.121H450.42V203.942H438.777V214.121Z" fill="white"/>
<path d="M423.195 214.121H437.387V201.713H423.195V214.121Z" fill="white"/>
<path d="M451.285 214.121H462.928V200.316H451.285V214.121Z" fill="white"/>
<path d="M440.449 224.293H422.154V240.287H440.449V224.293Z" fill="white"/>
<path d="M453.231 230.108H441.588V240.287H453.231V230.108Z" fill="white"/>
<path d="M478.246 230.108H466.604V240.287H478.246V230.108Z" fill="white"/>
<path d="M478.246 257.062H466.604V267.241H478.246V257.062Z" fill="white"/>
<path d="M430.289 257.062H418.646V267.241H430.289V257.062Z" fill="white"/>
<path d="M493.831 227.879H479.639V240.287H493.831V227.879Z" fill="white"/>
<path d="M445.493 254.833H431.301V267.241H445.493V254.833Z" fill="white"/>
<path d="M465.739 226.481H454.096V240.286H465.739V226.481Z" fill="white"/>
<path d="M491.543 253.437H479.9V267.242H491.543V253.437Z" fill="white"/>
<path d="M395.602 215.754H503.568V212.621H395.602V215.754Z" fill="#FBA43B"/>
<path d="M395.645 242.805H503.611V239.671H395.645V242.805Z" fill="#FBA43B"/>
<path d="M395.688 269.854H503.654V266.72H395.688V269.854Z" fill="#FBA43B"/>
<path d="M514.055 190.57V273.94H485.814L486.024 269.85L486.144 267.24L486.174 266.72L486.824 253.44L487.353 242.8L487.473 240.29L487.503 239.67L488.083 227.88L488.682 215.75L488.762 214.12L488.832 212.62L489.552 198.13L489.812 192.89L489.922 190.57H514.055Z" fill="#FBA43B"/>
<path d="M370.296 192.891H350.59V273.941H370.296V192.891Z" fill="#FBC58F"/>
<path d="M354.877 198.13H350.59V214.12H354.877V198.13Z" fill="white"/>
<path d="M353.838 227.88H350.59V240.29H353.838V227.88Z" fill="white"/>
<path d="M351.55 253.439H350.59V267.239H351.55V253.439Z" fill="white"/>
<path d="M363.581 212.62H350.59V215.75H363.581V212.62Z" fill="#FBA43B"/>
<path d="M363.621 239.67H350.59V242.8H363.621V239.67Z" fill="#FBA43B"/>
<path d="M363.661 266.721H350.59V269.851H363.661V266.721Z" fill="#FBA43B"/>
<path d="M394.771 273.94H350.592V190.57H390.664L394.771 273.94Z" fill="#FBA43B"/>
<g style="mix-blend-mode:overlay" opacity="0.25">
<path d="M468.22 58.4541L350.592 176.164V58.4541H468.22Z" fill="white"/>
</g>
<g style="mix-blend-mode:overlay" opacity="0.25">
<path d="M508.32 58.4541L350.59 216.304V191.584L483.627 58.4541H508.32Z" fill="white"/>
</g>
<g style="mix-blend-mode:overlay" opacity="0.25">
<path d="M514.056 87.5V95.8L350.59 259.38V251.08L514.056 87.5Z" fill="white"/>
</g>
<g style="mix-blend-mode:multiply" opacity="0.25">
<path d="M521.472 57.4199V96.8399C520.872 96.8899 520.273 96.9199 519.663 96.9199C516.826 96.921 514.017 96.3628 511.396 95.2773C508.775 94.1918 506.394 92.6002 504.387 90.5934C502.381 88.5867 500.789 86.2041 499.703 83.5817C498.618 80.9593 498.058 78.1486 498.058 75.3099C498.058 81.0413 495.783 86.5378 491.733 90.5905C487.683 94.6432 482.191 96.9199 476.463 96.9199C470.736 96.9199 465.243 94.6432 461.193 90.5905C457.143 86.5378 454.868 81.0413 454.868 75.3099C454.868 81.0413 452.593 86.5378 448.543 90.5905C444.493 94.6432 439.001 96.9199 433.273 96.9199C427.546 96.9199 422.053 94.6432 418.003 90.5905C413.953 86.5378 411.678 81.0413 411.678 75.3099C411.678 81.0413 409.403 86.5378 405.353 90.5905C401.303 94.6432 395.811 96.9199 390.083 96.9199C384.356 96.9199 378.863 94.6432 374.813 90.5905C370.763 86.5378 368.488 81.0413 368.488 75.3099C368.488 81.0411 366.212 86.5374 362.163 90.5899C358.113 94.6425 352.62 96.9194 346.893 96.9199C345.647 96.9219 344.402 96.8115 343.176 96.5899V57.4199H521.472Z" fill="#231F20"/>
</g>
<path d="M626.694 406H5.75857C4.48201 406 3.25774 405.473 2.35508 404.536C1.45242 403.598 0.945313 402.326 0.945313 401C0.945179 400.343 1.06958 399.693 1.31142 399.086C1.55326 398.48 1.90781 397.928 2.35479 397.464C2.80176 397 3.33242 396.632 3.91645 396.38C4.50049 396.129 5.12644 396 5.75857 396H626.694C627.97 396 629.195 396.527 630.097 397.464C631 398.402 631.507 399.674 631.507 401C631.507 402.326 631 403.598 630.097 404.535C629.194 405.473 627.97 406 626.694 406Z" fill="#666666"/>
<path d="M140.672 0L136.504 38.41H93.3145L100.26 0H140.672Z" fill="#84CDCD"/>
<path d="M179.694 38.409L181.085 0.000976562H140.674L136.502 38.409H179.694Z" fill="#CFECFF"/>
<path d="M222.892 38.409L221.493 0.00195312H181.086L179.695 38.41L222.892 38.409Z" fill="#84CDCD"/>
<path d="M266.079 38.409L261.907 0.000976562H221.492L222.883 38.409H266.079Z" fill="#CFECFF"/>
<path d="M309.275 38.41H266.075L261.908 0H302.32L309.275 38.41Z" fill="#84CDCD"/>
<path d="M93.3105 38.4092V56.2982C93.3104 59.1362 93.8689 61.9465 94.9542 64.5685C96.0394 67.1905 97.6302 69.573 99.6356 71.5798C101.641 73.5865 104.022 75.1784 106.642 76.2644C109.262 77.3504 112.07 77.9093 114.907 77.9092C120.634 77.9092 126.127 75.6323 130.177 71.5795C134.227 67.5266 136.503 62.0298 136.503 56.2982V38.4092H93.3105Z" fill="#84CDCD"/>
<path d="M136.502 38.4092V56.2982C136.502 59.1362 137.06 61.9465 138.146 64.5685C139.231 67.1905 140.822 69.573 142.827 71.5798C144.832 73.5865 147.213 75.1784 149.833 76.2644C152.454 77.3504 155.262 77.9093 158.098 77.9092C163.826 77.9092 169.319 75.6323 173.369 71.5795C177.419 67.5266 179.694 62.0298 179.694 56.2982V38.4092H136.502Z" fill="#CFECFF"/>
<path d="M179.695 38.4092V56.2982C179.695 62.0298 181.971 67.5266 186.021 71.5795C190.071 75.6323 195.564 77.9092 201.291 77.9092C204.128 77.91 206.937 77.3516 209.557 76.2658C212.178 75.1801 214.56 73.5884 216.565 71.5815C218.571 69.5747 220.163 67.192 221.248 64.5697C222.334 61.9473 222.892 59.1366 222.892 56.2982V38.4092H179.695Z" fill="#84CDCD"/>
<path d="M222.891 38.4092V56.2982C222.891 62.0298 225.166 67.5266 229.216 71.5795C233.266 75.6323 238.759 77.9092 244.487 77.9092C247.323 77.9093 250.131 77.3504 252.751 76.2644C255.371 75.1784 257.752 73.5865 259.758 71.5798C261.763 69.573 263.354 67.1905 264.439 64.5685C265.524 61.9465 266.083 59.1362 266.083 56.2982V38.4092H222.891Z" fill="#CFECFF"/>
<path d="M266.078 38.4092V56.2982C266.078 59.1363 266.637 61.9465 267.722 64.5686C268.807 67.1906 270.398 69.573 272.404 71.5798C274.409 73.5866 276.79 75.1784 279.41 76.2644C282.031 77.3504 284.839 77.9093 287.675 77.9092C293.403 77.9092 298.896 75.6323 302.946 71.5795C306.996 67.5266 309.271 62.0298 309.271 56.2982V38.4092H266.078Z" fill="#84CDCD"/>
<g style="mix-blend-mode:overlay" opacity="0.25">
<path d="M309.274 38.41H93.3145L100.26 0H302.319L309.274 38.41Z" fill="white"/>
</g>
<path d="M372.656 0L368.489 38.41H325.299L332.244 0H372.656Z" fill="#84CDCD"/>
<path d="M411.679 38.409L413.07 0.000976562H372.659L368.49 38.409H411.679Z" fill="#CFECFF"/>
<path d="M454.873 38.409L453.482 0.00195312H413.071L411.68 38.41L454.873 38.409Z" fill="#84CDCD"/>
<path d="M498.063 38.409L493.891 0.000976562H453.48L454.872 38.409H498.063Z" fill="#CFECFF"/>
<path d="M541.26 38.41H498.06L493.893 0H534.304L541.26 38.41Z" fill="#84CDCD"/>
<path d="M325.295 38.4092V56.2982C325.295 59.1362 325.853 61.9465 326.939 64.5685C328.024 67.1905 329.615 69.573 331.62 71.5798C333.625 73.5865 336.006 75.1784 338.626 76.2644C341.247 77.3504 344.055 77.9093 346.891 77.9092C349.727 77.9096 352.536 77.3509 355.156 76.265C357.777 75.1791 360.158 73.5873 362.164 71.5805C364.169 69.5737 365.76 67.1912 366.846 64.569C367.931 61.9469 368.49 59.1364 368.49 56.2982V38.4092H325.295Z" fill="#84CDCD"/>
<path d="M368.49 38.4092V56.2982C368.49 62.0298 370.766 67.5266 374.816 71.5795C378.866 75.6323 384.359 77.9092 390.086 77.9092C392.922 77.9093 395.731 77.3504 398.351 76.2644C400.971 75.1784 403.352 73.5865 405.357 71.5798C407.363 69.573 408.953 67.1905 410.039 64.5685C411.124 61.9465 411.682 59.1362 411.682 56.2982V38.4092H368.49Z" fill="#CFECFF"/>
<path d="M411.68 38.4092V56.2982C411.68 62.0298 413.955 67.5266 418.005 71.5795C422.055 75.6323 427.548 77.9092 433.276 77.9092C436.112 77.9093 438.92 77.3504 441.54 76.2644C444.16 75.1784 446.541 73.5865 448.547 71.5798C450.552 69.573 452.143 67.1905 453.228 64.5685C454.313 61.9465 454.872 59.1362 454.872 56.2982V38.4092H411.68Z" fill="#84CDCD"/>
<path d="M454.871 38.4092V56.2982C454.871 59.1363 455.43 61.9465 456.515 64.5686C457.6 67.1906 459.191 69.573 461.197 71.5798C463.202 73.5866 465.583 75.1784 468.203 76.2644C470.824 77.3504 473.632 77.9093 476.468 77.9092C482.196 77.9092 487.689 75.6323 491.739 71.5795C495.789 67.5266 498.064 62.0298 498.064 56.2982V38.4092H454.871Z" fill="#CFECFF"/>
<path d="M498.064 38.4092V56.2982C498.064 59.1362 498.623 61.9465 499.708 64.5685C500.793 67.1905 502.384 69.573 504.389 71.5798C506.395 73.5865 508.776 75.1784 511.396 76.2644C514.016 77.3504 516.824 77.9093 519.66 77.9092C525.388 77.9092 530.881 75.6323 534.931 71.5795C538.981 67.5266 541.256 62.0298 541.256 56.2982V38.4092H498.064Z" fill="#84CDCD"/>
<g style="mix-blend-mode:overlay" opacity="0.25">
<path d="M541.259 38.41H325.299L332.244 0H534.304L541.259 38.41Z" fill="white"/>
</g>
<path d="M466.263 114.242L398.504 116.072L400.931 206.034L468.69 204.203L466.263 114.242Z" fill="#CFECFF"/>
<path fill-rule="evenodd" clip-rule="evenodd" d="M449.15 149.553C449.523 150.021 449.868 150.509 450.184 151.018C451.92 153.875 452.817 157.16 452.774 160.501C452.778 163.835 451.885 167.111 450.188 169.983L449.671 170.759L448.635 172.138L447.428 173.431C447.223 173.687 446.958 173.912 446.686 174.143C446.5 174.301 446.31 174.462 446.135 174.637C445.452 175.175 444.732 175.663 443.981 176.103L443.205 176.62C440.525 178.046 437.533 178.787 434.498 178.774C431.451 178.791 428.453 178.019 425.791 176.534C425.274 176.298 424.784 176.008 424.326 175.672L422.947 174.637C422.032 173.893 421.193 173.055 420.448 172.138C420.056 171.685 419.709 171.194 419.413 170.673L418.896 169.983L418.035 168.432C417.667 167.619 417.351 166.784 417.086 165.933C416.537 164.174 416.245 162.344 416.225 160.501C416.235 159.253 416.379 158.01 416.656 156.793C417.171 154.158 418.293 151.681 419.931 149.553C420.433 148.831 421.01 148.166 421.654 147.569L422.258 146.966L423.637 145.845L425.102 144.897L425.877 144.466C428.533 142.97 431.535 142.197 434.582 142.225C437.629 142.209 440.628 142.981 443.289 144.466L444.065 144.897L445.444 145.845L446.823 146.966L447.426 147.569C448.07 148.168 448.647 148.833 449.15 149.553ZM441.305 162.572L448.03 156.02L438.715 154.641L434.579 146.192L430.355 154.641L421.045 156.02L427.77 162.572L426.219 171.882L434.494 167.486L442.857 171.882L441.305 162.572Z" fill="#FF9900"/>
<path d="M403.402 113.046L405.711 114.346L396.478 123.873L395.469 121.563L403.402 113.046Z" fill="#D1A454"/>
<path d="M470.119 197.804L472.427 199.104L463.195 208.631L462.186 206.321L470.119 197.804Z" fill="#D1A454"/>
<path d="M469.893 118.214L468.869 120.658L458.348 112.579L460.524 111.309L469.893 118.214Z" fill="#D1A454"/>
<path d="M408.061 206.111L407.041 208.554L396.52 200.475L398.696 199.205L408.061 206.111Z" fill="#D1A454"/>
<path d="M387.729 129.44C387.729 129.44 388.097 165.765 387.686 174.259C387.399 180.203 344.409 178.103 344.409 178.103L343.992 160.672L376.769 164.517L381.534 127.109L387.729 129.44Z" fill="#FF8B66"/>
<path d="M341.607 159.38L370.387 163.115C370.387 163.115 375.044 168.715 369.048 184.479C369.048 184.479 348.729 184.479 345.065 190.57L341.607 159.38Z" fill="#B0D6EA"/>
<path d="M233.663 238.986C234.763 237.904 235.973 236.94 237.272 236.108C239.87 234.972 241.323 234.351 242.321 233.088C243.02 232.197 245.618 231.708 245.618 231.708C245.618 231.708 246.696 227.716 243.638 225.161C242.753 225.542 241.807 225.762 240.845 225.81C239.462 225.459 238.329 223.566 235.677 223.446C233.631 223.231 231.63 222.703 229.745 221.879C229.597 221.975 229.474 222.104 229.385 222.256C229.295 222.408 229.243 222.579 229.232 222.755C229.221 222.931 229.252 223.107 229.321 223.269C229.391 223.431 229.497 223.575 229.632 223.688C230.688 224.606 232.844 224.841 233.185 225.388C233.254 225.496 233.309 225.612 233.351 225.734C233.354 225.744 233.36 225.754 233.368 225.762C233.456 225.965 233.498 226.184 233.492 226.405C233.486 226.625 233.432 226.842 233.334 227.04C233.326 227.071 233.311 227.1 233.29 227.125C232.358 228.398 228.993 229.425 227.454 229.741C225.314 230.174 222.398 230.941 223.195 232.119C223.991 233.297 224.901 231.839 229.82 231.753L229.993 232.225C230.349 232.238 227.378 233.868 224.441 234.775C222.422 235.405 223.494 236.575 224.21 236.718C224.927 236.861 226.866 235.941 228.333 235.504C229.299 235.204 230.302 234.886 230.898 234.694L231.342 235.188C228.255 238.062 226.615 237.707 226.822 238.918C227.029 240.129 229.933 238.996 230.928 238.092C231.662 237.554 232.456 237.104 233.295 236.752C231.363 239.41 230.044 239.472 230.419 240.398C230.811 241.354 233.002 239.908 233.663 238.986Z" fill="#FF8B66"/>
<path d="M237.136 228.636C235.019 228.381 233.539 226.056 233.366 225.766C233.454 225.968 233.496 226.188 233.49 226.408C233.484 226.629 233.43 226.846 233.332 227.044C233.732 227.662 234.309 228.145 234.988 228.429C235.667 228.713 236.416 228.785 237.136 228.636Z" fill="#EF6E4B"/>
<path d="M287.159 172.592C287.159 172.592 286.348 172.92 284.693 175.684C283.038 178.448 273.434 211.554 273.434 211.554C273.434 211.554 256.201 220.371 243.637 225.154L244.423 231.987C244.423 231.987 278.4 223.847 280.885 223.297C283.37 222.747 295.029 193.607 295.029 193.607L287.159 172.592Z" fill="#FF8B66"/>
<path d="M291.534 162.89C291.534 162.89 288.27 162.89 277.92 191.99L275.186 199.202C275.186 199.202 280.982 208.272 291.534 208.002L300.061 193.581L291.534 162.89Z" fill="#B0D6EA"/>
<path d="M257.467 394.399C257.463 394.979 257.496 395.559 257.567 396.135H287.003C287.003 395.553 286.992 394.971 286.961 394.399C286.696 389.499 285.766 384.658 284.197 380.009L276.841 376.848C276.48 379.913 274.932 382.713 272.529 384.648C272.003 385.061 271.44 385.423 270.846 385.729C270.575 385.875 270.305 386.01 270.024 386.135C269.415 386.412 268.786 386.646 268.144 386.835C265.824 387.43 263.462 387.844 261.079 388.072C257.941 388.554 257.467 392.184 257.467 394.399Z" fill="#B0D6EA"/>
<path d="M257.467 394.398C257.463 394.979 257.496 395.559 257.567 396.134H287.003C287.003 395.552 286.992 394.97 286.961 394.398H257.467Z" fill="#0D527C"/>
<path d="M270.846 385.727L274.929 387.037L275.791 385.537L272.529 384.643C272.003 385.057 271.44 385.42 270.846 385.727Z" fill="#0D527C"/>
<path d="M268.145 386.83L270.899 388.66L272.591 387.994L270.025 386.133C269.415 386.409 268.787 386.642 268.145 386.83Z" fill="#0D527C"/>
<path d="M309.712 394.398C309.752 394.988 309.864 395.571 310.044 396.134H329.65C329.893 395.576 330.078 394.995 330.2 394.398C332.133 385.009 319.108 373.521 319.108 373.521L314.973 379.042C314.973 379.042 315.451 387.879 311.949 389.719C311.137 390.171 310.486 390.864 310.085 391.702C309.684 392.54 309.554 393.483 309.712 394.398Z" fill="#B0D6EA"/>
<path d="M330.201 394.398H309.715C309.755 394.988 309.867 395.571 310.047 396.134H329.653C329.895 395.576 330.079 394.995 330.201 394.398Z" fill="#0D527C"/>
<path d="M312.842 389.016C312.842 389.016 321.102 387.132 324.868 389.572V388.207C324.868 388.207 317.923 384.828 312.842 389.016Z" fill="#0D527C"/>
<path d="M314.479 386.919C314.479 386.919 319.753 384.506 324.871 386.919L324.287 385.543C324.287 385.543 318.174 383.231 314.479 386.919Z" fill="#0D527C"/>
<path d="M342.455 242.636C342.455 261.3 340.62 280.308 340.149 285.13C339.678 289.952 334.688 343.815 333.986 364.652C333.627 375.326 330.202 388.245 330.202 388.245C330.202 388.245 320.041 380.026 314.285 386.133L312.843 377.804L315.541 371.247C315.541 371.247 312.658 365.823 315.018 361.609C317.377 357.395 318.099 267.309 318.099 267.309L313.56 267.018L289.904 371.247V377.184C289.904 377.184 287.043 384.745 287.006 389.572L271.596 384.646L273.954 377.804L273.322 368.035L277.643 355.296C277.643 355.296 293.622 255.668 292.399 244.489L342.455 242.636Z" fill="#093951"/>
<path d="M291.534 162.89C300.25 160.513 309.209 159.137 318.237 158.79C329.19 158.274 347.705 160.018 347.705 160.018C349.991 165.274 343.734 256.903 343.734 256.903C343.734 256.903 315.034 258.868 290.391 253.19C290.391 253.19 294.134 223.007 293.51 202.326C292.887 181.645 291.534 162.89 291.534 162.89Z" fill="#CFECFF"/>
<path d="M313.394 151.017C313.394 151.017 314.893 157.209 312.605 159.679C312.605 159.679 318.813 166.943 324.802 159.621C324.802 159.621 323.192 155.55 324.802 152.908L313.394 151.017Z" fill="#EF6E4B"/>
<path d="M329.951 139.911C329.951 139.911 333.13 136.736 333.521 140.447C333.975 144.747 330.073 146.478 329.309 145.11C328.546 143.742 329.951 139.911 329.951 139.911Z" fill="#FF8B66"/>
<path d="M307.691 140.134C307.691 140.134 304.512 136.96 304.12 140.671C303.668 144.971 307.57 146.702 308.332 145.335C309.095 143.968 307.691 140.134 307.691 140.134Z" fill="#FF8B66"/>
<path d="M319.156 155.484C326.21 155.484 330.191 150.874 330.191 137.046C330.191 129.914 326.563 125.539 318.664 125.539C310.764 125.539 307.432 129.913 307.432 137.046C307.432 151.904 311.87 155.484 319.156 155.484Z" fill="#FF8B66"/>
<path d="M309.771 141.978C309.637 142.297 309.605 142.651 309.681 142.989C309.756 143.327 309.935 143.634 310.192 143.866C310.449 144.098 310.772 144.245 311.117 144.285C311.461 144.326 311.809 144.258 312.113 144.092C312.417 143.926 312.662 143.669 312.813 143.357C312.965 143.046 313.016 142.695 312.96 142.353C312.904 142.01 312.742 141.694 312.499 141.448C312.255 141.202 311.941 141.037 311.6 140.978C311.225 140.874 310.824 140.921 310.483 141.108C310.142 141.294 309.886 141.606 309.771 141.978Z" fill="#DB614D"/>
<path d="M324.278 142.364C324.224 142.706 324.278 143.057 324.433 143.367C324.587 143.677 324.834 143.932 325.139 144.096C325.444 144.259 325.792 144.324 326.136 144.281C326.479 144.238 326.801 144.09 327.057 143.856C327.312 143.622 327.489 143.314 327.562 142.976C327.635 142.637 327.601 142.284 327.465 141.965C327.329 141.647 327.098 141.378 326.802 141.197C326.507 141.016 326.163 140.931 325.818 140.954C325.428 140.943 325.05 141.083 324.762 141.347C324.475 141.61 324.301 141.975 324.278 142.364Z" fill="#DB614D"/>
<path d="M312.059 134.69C312.106 134.697 312.154 134.695 312.2 134.683C312.246 134.672 312.289 134.65 312.326 134.621C313.171 134.093 314.18 133.896 315.161 134.068C315.252 134.083 315.346 134.063 315.423 134.01C315.5 133.957 315.553 133.877 315.571 133.786C315.58 133.74 315.58 133.693 315.57 133.648C315.561 133.603 315.542 133.56 315.516 133.521C315.49 133.483 315.457 133.45 315.418 133.425C315.379 133.4 315.336 133.382 315.29 133.374C314.113 133.164 312.901 133.41 311.898 134.062C311.86 134.09 311.829 134.126 311.806 134.166C311.782 134.207 311.767 134.252 311.761 134.298C311.755 134.345 311.758 134.392 311.77 134.437C311.783 134.482 311.804 134.525 311.833 134.562C311.889 134.632 311.97 134.678 312.059 134.69Z" fill="#0C476B"/>
<path d="M325.557 134.739C325.625 134.731 325.69 134.702 325.742 134.657C325.794 134.613 325.832 134.553 325.852 134.487C325.871 134.421 325.87 134.35 325.85 134.285C325.829 134.219 325.79 134.16 325.737 134.116C324.755 133.434 323.551 133.151 322.368 133.324C322.276 133.339 322.194 133.389 322.139 133.464C322.084 133.539 322.06 133.632 322.074 133.724C322.09 133.816 322.141 133.897 322.215 133.952C322.289 134.007 322.382 134.031 322.474 134.019C323.458 133.881 324.459 134.109 325.286 134.66C325.323 134.691 325.367 134.714 325.413 134.728C325.46 134.741 325.509 134.745 325.557 134.739Z" fill="#0C476B"/>
<path d="M312.787 138.675C312.787 139.551 313.181 140.262 313.668 140.262C314.154 140.262 314.549 139.551 314.549 138.675C314.549 137.799 314.154 137.087 313.668 137.087C313.181 137.087 312.787 137.798 312.787 138.675Z" fill="#1A4850"/>
<path d="M322.205 138.675C322.205 139.551 322.605 140.262 323.086 140.262C323.568 140.262 323.968 139.551 323.968 138.675C323.968 137.799 323.573 137.087 323.086 137.087C322.6 137.087 322.205 137.798 322.205 138.675Z" fill="#1A4850"/>
<path d="M327.059 128.923C327.059 128.923 322.154 128.583 311.377 127.809C311.377 127.809 307.436 131.916 307.715 142.028C307.715 142.028 301.405 123.812 319.825 123.812C338.246 123.812 329.948 141.624 329.948 141.624C329.948 141.624 330.486 132.336 327.059 128.923Z" fill="#1A4850"/>
<path d="M318.71 143.262L319.238 142.729L317.839 141.342C319.191 139.428 319.184 134.998 319.183 134.801H318.433C318.433 134.849 318.44 139.615 317.06 141.112L316.814 141.378L318.71 143.262Z" fill="#DB614D"/>
<path d="M323.39 145.57C323.39 145.57 316.448 145.863 312.944 144.935C312.849 145.607 312.903 146.292 313.101 146.941C313.299 147.591 313.637 148.189 314.091 148.694C314.544 149.199 315.103 149.599 315.727 149.865C316.351 150.131 317.026 150.257 317.704 150.235C323.39 150.503 323.39 145.57 323.39 145.57Z" fill="#1A4850"/>
<path d="M329.081 123.812C329.081 123.812 326.45 119.526 318.156 119.612C310.59 119.688 306.511 123.278 306.321 127.362C306.131 131.446 312.21 132.112 312.21 132.112C312.21 132.112 310.544 131.112 310.544 130.195C313.195 131.663 316.215 132.329 319.238 132.112L316.814 130.612C316.814 130.612 323.874 132.177 328.033 130.228C328.033 130.228 331.23 131.728 331.792 134.002C332.617 133.2 333.215 132.194 333.524 131.086C333.833 129.978 333.843 128.808 333.553 127.695C333.28 126.675 332.708 125.76 331.911 125.068C331.114 124.376 330.129 123.938 329.081 123.812Z" fill="#1A4850"/>
<path d="M338.399 174.484C338.399 174.484 339.698 161.368 340.917 158.696H337.274C335.839 163.846 335 169.143 334.775 174.484H338.399Z" fill="#D1A454"/>
<path d="M302.293 160.02C302.293 160.02 301.043 167.61 302.293 173.985H297.833C297.833 173.985 297.781 163.233 298.632 160.56L302.293 160.02Z" fill="#D1A454"/>
<path d="M338.767 171.104C338.767 171.104 313.532 175.117 297.92 172.592L295.472 219.86L292.734 223.232L291.857 237.407L294.267 238.443L292.734 295.335C292.734 295.335 305.325 294.61 337.456 294.291L341.609 238.11C343.079 237.878 344.492 237.368 345.77 236.605V224.293L340.425 220.36C340.425 220.36 337.846 184.172 338.767 171.104Z" fill="#FFCF7B"/>
<path d="M329.643 199.426C329.777 192.339 324.54 186.492 317.945 186.367C311.349 186.241 305.894 191.885 305.759 198.972C305.625 206.059 310.862 211.905 317.457 212.031C324.053 212.156 329.508 206.513 329.643 199.426Z" fill="#D1A454"/>
<path d="M317.668 206.742C317.105 206.741 316.545 206.658 316.007 206.496C313.623 205.782 311.71 203.603 311.651 202.206C311.648 202.14 311.658 202.074 311.681 202.013C311.704 201.951 311.738 201.894 311.783 201.846C311.827 201.798 311.881 201.759 311.941 201.731C312 201.704 312.065 201.688 312.13 201.686C312.262 201.683 312.39 201.731 312.487 201.82C312.584 201.91 312.642 202.033 312.65 202.165C312.683 202.957 314.127 204.888 316.295 205.539C317.884 206.017 320.271 205.907 322.6 202.671C322.679 202.568 322.795 202.501 322.924 202.482C323.052 202.463 323.182 202.495 323.287 202.571C323.392 202.647 323.464 202.76 323.487 202.888C323.51 203.015 323.483 203.147 323.411 203.255C321.403 206.046 319.282 206.742 317.668 206.742Z" fill="#093951"/>
<path d="M322.45 196.286C322.436 197.024 322.116 197.616 321.737 197.608C321.358 197.6 321.061 196.997 321.075 196.26C321.089 195.523 321.409 194.931 321.788 194.938C322.167 194.945 322.464 195.549 322.45 196.286Z" fill="#093951"/>
<path d="M314.518 196.132C314.504 196.869 314.184 197.461 313.805 197.454C313.426 197.447 313.129 196.843 313.143 196.105C313.157 195.367 313.477 194.776 313.856 194.783C314.235 194.79 314.527 195.394 314.518 196.132Z" fill="#093951"/>
<path d="M380.91 128.105C381.498 128.734 386.967 130.205 388.196 129.517C389.602 128.735 390.056 127.045 391.168 124.438C391.987 123.13 392.941 121.911 394.012 120.801C394.927 120.131 396.355 117.925 395.397 117.541C394.468 117.174 394.419 118.495 391.78 120.452C392.124 119.609 392.566 118.81 393.097 118.072C393.996 117.072 395.088 114.149 393.886 113.955C392.684 113.761 393.044 115.397 390.2 118.513L389.7 118.071C389.887 117.471 390.2 116.471 390.486 115.498C390.909 114.027 391.822 112.079 391.663 111.361C391.503 110.643 390.334 109.584 389.723 111.611C388.844 114.557 387.242 117.544 387.225 117.189L386.752 117.02C386.794 112.097 388.245 111.174 387.058 110.388C385.871 109.602 385.134 112.526 384.719 114.671C384.42 116.212 383.42 119.59 382.158 120.534C382.134 120.555 382.105 120.57 382.074 120.578C381.878 120.678 381.661 120.734 381.441 120.742C381.22 120.75 381 120.71 380.797 120.624C380.789 120.616 380.78 120.61 380.769 120.607C380.647 120.566 380.531 120.512 380.421 120.445C379.869 120.108 379.614 117.953 378.687 116.905C378.572 116.771 378.428 116.666 378.265 116.598C378.103 116.53 377.927 116.501 377.751 116.513C377.576 116.526 377.405 116.579 377.254 116.67C377.103 116.76 376.975 116.885 376.881 117.034C377.72 118.913 378.266 120.91 378.5 122.956C378.609 124.919 379.473 126.764 380.91 128.105Z" fill="#FF8B66"/>
<path d="M383.701 124.371C383.427 122.254 381.091 120.796 380.803 120.624C381.006 120.71 381.225 120.751 381.446 120.743C381.666 120.735 381.882 120.679 382.079 120.578C382.7 120.973 383.186 121.547 383.476 122.224C383.765 122.9 383.844 123.649 383.701 124.371Z" fill="#EF6E4B"/>
</svg>
